<svg xmlns="http://www.w3.org/2000/svg" xmlns:xlink="http://www.w3.org/1999/xlink" width="1920" height="2474" viewBox="0 0 1920 2474">
  <defs>
    <clipPath id="clip-Web_1920_4">
      <rect width="1920" height="2474"/>
    </clipPath>
  </defs>
  <g id="Web_1920_4" data-name="Web 1920 – 4" clip-path="url(#clip-Web_1920_4)">
    <rect width="1920" height="2474" fill="#fff"/>
    <path id="Path_17" data-name="Path 17" d="M-1032.12,2235.559c-178.672,13.338-189.665,122.756-393.667,122.756,0,0-289.313,66.781-381.757,208.18s-107.784,158.6-259.824,194.3-53.88,193.1-546.28,182.031-480.7,267.267-410.484,388.942,129.1-121.515,691.342,97.761-73.763,321.179-98.352,428.239,209,239.02,468.2,234.139,169.927,17.758,150.707,77.305c-23.443,72.634-311.384,130.433-242.722,168.242,34.726,19.123,268.49,90.291,92.016,164.022s-868.858-65.465-650.7,29.676-905.892,309.111-774.155,353.057c24.747,8.255,349.458,16.7,465.313,71.078,53.477,25.1-119.168,96.755-60.7,116.84,151.556,52.061,616.408-30.469,821.878,40.891s106.751,53.551,198.367,60.657c110.83,8.595,302.334,2.781,223.283-36.669-86.942-43.387-746.271-205.8-785.52-274.569-76.672-267.577,490.248-51.009,562.236-66.591,131.341-28.43-245.249-245.812,181.868-322.1s-320.338-244.287,381.918-158.316c202.179,33.093,430.9,47.141,422,11.613-12.7-50.753-511.753-106.086-502.882-195.955,5.446-55.176,329.793-356.321-182.164-207.4s-392.907-120.665-300.745-265.072c144.229-225.99,0-326.843,0-326.843s-188.842-136.75-411.007-121.787-191.451-101.384-57.191-155.025,442.855-142.018,594.229-59.54,356.181-112.14,411.127-209.594-267.232-103.177-191.343-180.226,340.837,65.569,487.089,38.727,148.538-100.343,97.921-146.1,288.337-183.96,288.337-183.96S-853.449,2222.22-1032.12,2235.559Z" transform="translate(3393.931 -2462.559)" fill="#e0d9d1"/>
    <path id="Path_20" data-name="Path 20" d="M-1032.12,2235.559c-178.672,13.338-189.665,122.756-393.667,122.756,0,0-289.313,66.781-381.757,208.18s-107.784,158.6-259.824,194.3-53.88,193.1-546.28,182.031-480.7,267.267-410.484,388.942,129.1-121.515,691.342,97.761-73.763,321.179-98.352,428.239,209,239.02,468.2,234.139,169.927,17.758,150.707,77.305c-23.443,72.634-311.384,130.433-242.722,168.242,34.726,19.123,268.49,90.291,92.016,164.022s-1016.065,35.768-797.912,130.908-758.685,207.879-626.947,251.825c24.747,8.255,349.458,16.7,465.313,71.078,53.477,25.1-119.168,96.755-60.7,116.84,151.556,52.061,616.408-30.469,821.878,40.891s-91.617,237.447,0,244.553c110.83,8.595,500.7-181.115,421.651-220.565-86.942-43.387-746.271-205.8-785.52-274.569-76.672-267.577,490.248-51.009,562.236-66.591,131.341-28.43-203.834-156.458,223.283-232.748s-361.753-333.642,340.5-247.671c202.179,33.093,544.194,35.527,535.3,0-12.7-50.754-625.049-94.473-616.178-184.342,5.446-55.176,329.793-356.321-182.164-207.4s-392.907-120.665-300.745-265.072c144.229-225.99,0-326.843,0-326.843s-188.842-136.75-411.007-121.787-191.451-101.384-57.191-155.025,442.855-142.018,594.229-59.54,356.181-112.14,411.127-209.594-267.232-103.177-191.343-180.226,340.837,65.569,487.089,38.727,148.538-100.343,97.921-146.1,288.337-183.96,288.337-183.96S-853.449,2222.22-1032.12,2235.559Z" transform="translate(2774.683 -1501.059)" fill="#e0d9d1"/>
    <g id="Group_152" data-name="Group 152" transform="translate(654.235 1430.92) rotate(90)">
      <g id="Group_86" data-name="Group 86" transform="translate(499.32 295.099)">
        <rect id="Rectangle_33" data-name="Rectangle 33" width="165" height="145.995" transform="translate(0 147.723)" fill="#fff"/>
        <g id="Group_85" data-name="Group 85" transform="translate(0 0)">
          <rect id="Rectangle_18" data-name="Rectangle 18" width="165.864" height="147.723" transform="translate(332.592)"/>
          <g id="Group_84" data-name="Group 84">
            <rect id="Rectangle_15" data-name="Rectangle 15" width="165.864" height="145.995" transform="translate(332.592 147.723)" fill="#fff"/>
            <rect id="Rectangle_34" data-name="Rectangle 34" width="165" height="147.723"/>
            <rect id="Rectangle_19" data-name="Rectangle 19" width="165" height="147.723" transform="translate(165.864)" fill="#fff"/>
            <rect id="Rectangle_21" data-name="Rectangle 21" width="165" height="145.995" transform="translate(165.864 147.723)"/>
          </g>
        </g>
      </g>
      <g id="Group_88" data-name="Group 88" transform="translate(499.32 -0.347)">
        <rect id="Rectangle_33-2" data-name="Rectangle 33" width="165" height="147.723" transform="translate(0 147.723)" fill="#fff"/>
        <g id="Group_85-2" data-name="Group 85" transform="translate(0 0)">
          <rect id="Rectangle_18-2" data-name="Rectangle 18" width="165.864" height="147.723" transform="translate(332.592)"/>
          <g id="Group_84-2" data-name="Group 84">
            <rect id="Rectangle_15-2" data-name="Rectangle 15" width="165.864" height="147.723" transform="translate(332.592 147.723)" fill="#fff"/>
            <rect id="Rectangle_34-2" data-name="Rectangle 34" width="165" height="147.723"/>
            <rect id="Rectangle_19-2" data-name="Rectangle 19" width="165" height="147.723" transform="translate(165.864)" fill="#fff"/>
            <rect id="Rectangle_21-2" data-name="Rectangle 21" width="165" height="147.723" transform="translate(165.864 147.723)"/>
          </g>
        </g>
      </g>
      <g id="Group_89" data-name="Group 89" transform="translate(0 -0.347)">
        <rect id="Rectangle_33-3" data-name="Rectangle 33" width="165" height="147.723" transform="translate(0 0)" fill="#fff"/>
        <g id="Group_85-3" data-name="Group 85" transform="translate(0 0)">
          <rect id="Rectangle_18-3" data-name="Rectangle 18" width="166.728" height="147.723" transform="translate(332.592 147.723)"/>
          <g id="Group_84-3" data-name="Group 84">
            <rect id="Rectangle_15-3" data-name="Rectangle 15" width="166.728" height="147.723" transform="translate(332.592)" fill="#fff"/>
            <rect id="Rectangle_34-3" data-name="Rectangle 34" width="165" height="147.723" transform="translate(0 147.723)"/>
            <rect id="Rectangle_19-3" data-name="Rectangle 19" width="165.864" height="147.723" transform="translate(166.728 147.723)" fill="#fff"/>
            <rect id="Rectangle_21-3" data-name="Rectangle 21" width="165.864" height="147.723" transform="translate(166.728)"/>
          </g>
        </g>
      </g>
      <g id="Group_87" data-name="Group 87" transform="translate(0 295.099)">
        <rect id="Rectangle_33-4" data-name="Rectangle 33" width="165" height="147.723" transform="translate(0 0)" fill="#fff"/>
        <g id="Group_85-4" data-name="Group 85" transform="translate(0 0)">
          <rect id="Rectangle_18-4" data-name="Rectangle 18" width="166.728" height="145.995" transform="translate(332.592 147.723)"/>
          <g id="Group_84-4" data-name="Group 84" transform="translate(0 0)">
            <rect id="Rectangle_15-4" data-name="Rectangle 15" width="166.728" height="147.723" transform="translate(332.592)" fill="#fff"/>
            <rect id="Rectangle_34-4" data-name="Rectangle 34" width="165" height="145.995" transform="translate(0 147.723)"/>
            <rect id="Rectangle_19-4" data-name="Rectangle 19" width="165.864" height="145.995" transform="translate(166.728 147.723)" fill="#fff"/>
            <rect id="Rectangle_21-4" data-name="Rectangle 21" width="165.864" height="147.723" transform="translate(166.728)"/>
          </g>
        </g>
      </g>
    </g>
    <text id="THERESE_MØLLER_PRÆST_OG_DAGLIG_LEDER_Kontakt_vedrørende_kirkelige_handlinger_dåb_vielser_begravelse_m.m._samt_lån_af_kirkerummet_til_foreninger_eller_møder._tlf._29618552_Kontakt_via_mail_therese_ukirke.dk" data-name="THERESE MØLLER
PRÆST OG DAGLIG LEDER
Kontakt vedrørende kirkelige handlinger (dåb, vielser, begravelse m.m.) samt lån af kirkerummet til foreninger eller møder.

tlf. 29618552
Kontakt via mail therese@ukirke.dk" transform="translate(753 648.178)" fill="#fff" font-size="28" font-family="HelveticaNeue, Helvetica Neue"><tspan x="0" y="27">THERESE MØLLER</tspan><tspan x="0" y="61">PRÆST OG DAGLIG LEDER</tspan><tspan x="0" y="95">Kontakt vedrørende kirkelige handlinger (dåb, vielser, begravelse </tspan><tspan x="0" y="129">m.m.) samt lån af kirkerummet til foreninger eller møder.</tspan><tspan x="0" y="163"></tspan><tspan x="0" y="197">tlf. 29618552</tspan><tspan x="0" y="231">Kontakt via mail therese@ukirke.dk</tspan></text>
    <text id="ADRESSE" transform="translate(1234 1712.178)" fill="#fff" font-size="28" font-family="HelveticaNeue, Helvetica Neue"><tspan x="0" y="0">ADRESSE</tspan></text>
    <text id="uKirke_Gethsemane_Kirke_Dannebrogsgade_53_1660_Kbh._V" data-name="uKirke / Gethsemane Kirke

Dannebrogsgade 53 

1660 Kbh. V" transform="translate(1234 1734.178)" fill="#fff" font-size="20" font-family="HelveticaNeue, Helvetica Neue"><tspan x="0" y="19">uKirke / Gethsemane Kirke</tspan><tspan x="0" y="43"></tspan><tspan x="0" y="67">Dannebrogsgade 53 </tspan><tspan x="0" y="91"></tspan><tspan x="0" y="115">1660 Kbh. V</tspan></text>
    <text id="Vi_har_åbent_mandag_10-15_samt_tirsdage_onsdage_og_torsdage_10-20._Dertil_har_vi_flere_events_om_måneden_som_du_kan_finde_på_vores_Facebook._Ring_eller_skriv_til_os_hvis_du_vil_aftale_et_møde_eller_være_sikker_på_at_vi_har_åbent." data-name="Vi har åbent mandag 10-15, samt tirsdage, onsdage og torsdage 10-20. Dertil har vi flere events om måneden, som du kan finde på vores Facebook.

Ring eller skriv til os, hvis du vil aftale et møde eller være sikker på, at vi har åbent." transform="translate(435 1734.178)" fill="#fff" font-size="20" font-family="HelveticaNeue, Helvetica Neue"><tspan x="0" y="19">Vi har åbent mandag 10-15, samt tirsdage, </tspan><tspan x="0" y="43">onsdage og torsdage 10-20. Dertil har vi flere </tspan><tspan x="0" y="67">events om måneden, som du kan finde på vores </tspan><tspan x="0" y="91">Facebook.</tspan><tspan x="0" y="115"></tspan><tspan x="0" y="139">Ring eller skriv til os, hvis du vil aftale et møde </tspan><tspan x="0" y="163">eller være sikker på, at vi har åbent.</tspan></text>
    <path id="Path_21" data-name="Path 21" d="M-1032.12,2235.559c-178.672,13.338-189.665,122.756-393.667,122.756,0,0-289.313,66.781-381.757,208.18s-107.784,158.6-259.824,194.3-53.88,193.1-546.28,182.031-480.7,267.267-410.484,388.942,129.1-121.515,691.342,97.761-73.763,321.179-98.352,428.239,209,239.02,468.2,234.139,169.927,17.758,150.707,77.305c-23.443,72.634-311.384,130.433-242.722,168.242,34.726,19.123,268.49,90.291,92.016,164.022s-868.858-65.465-650.7,29.676-905.892,309.111-774.155,353.057c24.747,8.255,349.458,16.7,465.313,71.078,53.477,25.1-119.168,96.755-60.7,116.84,151.556,52.061,616.408-30.469,821.878,40.891s106.751,53.551,198.367,60.657c110.83,8.595,302.334,2.781,223.283-36.669-86.942-43.387-746.271-205.8-785.52-274.569-76.672-267.577,490.248-51.009,562.236-66.591,131.341-28.43-245.249-245.812,181.868-322.1s-320.338-244.287,381.918-158.316c202.179,33.093,430.9,47.141,422,11.613-12.7-50.753-511.753-106.086-502.882-195.955,5.446-55.176,329.793-356.321-182.164-207.4s-392.907-120.665-300.745-265.072c144.229-225.99,0-326.843,0-326.843s-188.842-136.75-411.007-121.787-191.451-101.384-57.191-155.025,442.855-142.018,594.229-59.54,356.181-112.14,411.127-209.594-267.232-103.177-191.343-180.226,340.837,65.569,487.089,38.727,148.538-100.343,97.921-146.1,288.337-183.96,288.337-183.96S-853.449,2222.22-1032.12,2235.559Z" transform="translate(3393.932 -2462.559)" fill="#e0d9d1"/>
    <path id="Path_22" data-name="Path 22" d="M1462.051,5619.062C1135.008,5604.625,530.234,5491.6,530.234,5491.6L344.106,5353.558s-659.972-1.74-829.183-154.792-197.289-171.67-475.587-210.311c-9.184-1.275-336.912-125.511-343.831-128.23-193.966-76.209,981.08-580.764,109.533-569.18-497.516,6.613-119.092,128.392,53.6,144.448,139.549,12.975-217.609-96.631-160.031-155.634,14.394-14.751,59.28-17.336,59.905-19.132.868-2.174,14.978-43.725,2.84-27.025-52.825,72.68-662.472,233.179,82.331,61.406,1029.132-237.347-592.179-303.794-637.185-419.677s549.542-333.074,1023.975-327.791,344.262-65.788,309.082-130.242c-42.912-78.62-424.039-308.613-298.36-349.539,63.564-20.7,524.06,137.684,201.038,57.875-318.176-78.612-1085.047,138.788-1117.876,129.519.169-.044,3.231-1.87,7.941-4.9,14.911-9.586,46.229-31.373,34.491-35.832-8.253-2.4-22.924-4.534-12.907-17.648,6.13-8.025,4.437-7.228,16.023-12,2.845-.427,59.044-15.61,59.044-15.61s22.674-5.687,22.948-5.758c5.59-1.442,48.948-12.266,54.157-13.682,360.928-98.146-485.639-101.642-247.879-148.543,45.3-8.936-996.135-329.323-784.072-388.18,97.884-27.167-218.126-104.73-111.1-126.47,277.41-56.351,626.757-50.1,1002.852-127.342s-461.723-576.837-294.027-584.528c202.868-9.3,897.435,592.571,752.738,635.273C-1334.574,2457-1726.809,2639.165-1798.65,2713.6c-140.343,289.629,638.321-22.63,770.089-5.763,240.408,30.773-172.968,349.821,608.834,432.4s-603.254,258.512,682.167,165.456c370.072-35.82,788.724-51.026,772.445-12.57-23.255,54.936-936.721,114.829-920.484,212.105,9.969,59.722,603.66,385.687-333.436,224.5s-719.183,130.609-550.489,286.918c264,244.616,0,353.78,0,353.78s-237.458,188.16-644.114,171.965c-387.951-15.45-133.215-52.036,83.729,8.8,10.79,3.026-307.918,116.19-296.613,118.861,245.751,58.062,792.656,227.208,1069.734,137.934s669.912,47.894,770.486,153.381-489.147,111.681-350.238,195.08,623.874-70.974,891.577-41.919,271.886,108.613,179.236,158.136,527.777,199.122,527.777,199.122S1789.094,5633.5,1462.051,5619.062Z" transform="matrix(-0.995, 0.105, -0.105, -0.995, 566.096, 5684.851)" fill="#eab03d"/>
    <path id="Path_23" data-name="Path 23" d="M-1032.12,2235.559c-178.672,13.338-189.665,122.756-393.667,122.756,0,0-289.313,66.781-381.757,208.18s-107.784,158.6-259.824,194.3-53.88,193.1-546.28,182.031-480.7,267.267-410.484,388.942,129.1-121.515,691.342,97.761-73.763,321.179-98.352,428.239,209,239.02,468.2,234.139,169.927,17.758,150.707,77.305c-23.443,72.634-311.384,130.433-242.722,168.242,34.726,19.123,268.49,90.291,92.016,164.022s-1016.065,35.768-797.912,130.908-758.685,207.879-626.947,251.825c24.747,8.255,349.458,16.7,465.313,71.078,53.477,25.1-119.168,96.755-60.7,116.84,151.556,52.061,616.408-30.469,821.878,40.891s-91.617,237.447,0,244.553c110.83,8.595,500.7-181.115,421.651-220.565-86.942-43.387-746.271-205.8-785.52-274.569-76.672-267.577,490.248-51.009,562.236-66.591,131.341-28.43-203.834-156.458,223.283-232.748s-361.753-333.642,340.5-247.671c202.179,33.093,544.194,35.527,535.3,0-12.7-50.754-625.049-94.473-616.178-184.342,5.446-55.176,329.793-356.321-182.164-207.4s-392.907-120.665-300.745-265.072c144.229-225.99,0-326.843,0-326.843s-188.842-136.75-411.007-121.787-191.451-101.384-57.191-155.025,442.855-142.018,594.229-59.54,356.181-112.14,411.127-209.594-267.232-103.177-191.343-180.226,340.837,65.569,487.089,38.727,148.538-100.343,97.921-146.1,288.337-183.96,288.337-183.96S-853.449,2222.22-1032.12,2235.559Z" transform="translate(2774.684 -1501.059)" fill="#e0d9d1"/>
    <g id="Group_154" data-name="Group 154" transform="translate(654.235 1430.92) rotate(90)">
      <g id="Group_86-2" data-name="Group 86" transform="translate(499.32 295.099)">
        <rect id="Rectangle_33-5" data-name="Rectangle 33" width="165" height="145.995" transform="translate(0 147.723)" fill="#fff"/>
        <g id="Group_85-5" data-name="Group 85" transform="translate(0 0)">
          <rect id="Rectangle_18-5" data-name="Rectangle 18" width="165.864" height="147.723" transform="translate(332.592)"/>
          <g id="Group_84-5" data-name="Group 84">
            <rect id="Rectangle_15-5" data-name="Rectangle 15" width="165.864" height="145.995" transform="translate(332.592 147.723)" fill="#fff"/>
            <rect id="Rectangle_34-5" data-name="Rectangle 34" width="165" height="147.723"/>
            <rect id="Rectangle_19-5" data-name="Rectangle 19" width="165" height="147.723" transform="translate(165.864)" fill="#fff"/>
            <rect id="Rectangle_21-5" data-name="Rectangle 21" width="165" height="145.995" transform="translate(165.864 147.723)"/>
          </g>
        </g>
      </g>
      <g id="Group_88-2" data-name="Group 88" transform="translate(499.32 -0.347)">
        <rect id="Rectangle_33-6" data-name="Rectangle 33" width="165" height="147.723" transform="translate(0 147.723)" fill="#fff"/>
        <g id="Group_85-6" data-name="Group 85" transform="translate(0 0)">
          <rect id="Rectangle_18-6" data-name="Rectangle 18" width="165.864" height="147.723" transform="translate(332.592)"/>
          <g id="Group_84-6" data-name="Group 84">
            <rect id="Rectangle_15-6" data-name="Rectangle 15" width="165.864" height="147.723" transform="translate(332.592 147.723)" fill="#fff"/>
            <rect id="Rectangle_34-6" data-name="Rectangle 34" width="165" height="147.723"/>
            <rect id="Rectangle_19-6" data-name="Rectangle 19" width="165" height="147.723" transform="translate(165.864)" fill="#fff"/>
            <rect id="Rectangle_21-6" data-name="Rectangle 21" width="165" height="147.723" transform="translate(165.864 147.723)"/>
          </g>
        </g>
      </g>
      <g id="Group_89-2" data-name="Group 89" transform="translate(0 -0.347)">
        <rect id="Rectangle_33-7" data-name="Rectangle 33" width="165" height="147.723" transform="translate(0 0)" fill="#fff"/>
        <g id="Group_85-7" data-name="Group 85" transform="translate(0 0)">
          <rect id="Rectangle_18-7" data-name="Rectangle 18" width="166.728" height="147.723" transform="translate(332.592 147.723)"/>
          <g id="Group_84-7" data-name="Group 84">
            <rect id="Rectangle_15-7" data-name="Rectangle 15" width="166.728" height="147.723" transform="translate(332.592)" fill="#fff"/>
            <rect id="Rectangle_34-7" data-name="Rectangle 34" width="165" height="147.723" transform="translate(0 147.723)"/>
            <rect id="Rectangle_19-7" data-name="Rectangle 19" width="165.864" height="147.723" transform="translate(166.728 147.723)" fill="#fff"/>
            <rect id="Rectangle_21-7" data-name="Rectangle 21" width="165.864" height="147.723" transform="translate(166.728)"/>
          </g>
        </g>
      </g>
      <g id="Group_87-2" data-name="Group 87" transform="translate(0 295.099)">
        <rect id="Rectangle_33-8" data-name="Rectangle 33" width="165" height="147.723" transform="translate(0 0)" fill="#fff"/>
        <g id="Group_85-8" data-name="Group 85" transform="translate(0 0)">
          <rect id="Rectangle_18-8" data-name="Rectangle 18" width="166.728" height="145.995" transform="translate(332.592 147.723)"/>
          <g id="Group_84-8" data-name="Group 84" transform="translate(0 0)">
            <rect id="Rectangle_15-8" data-name="Rectangle 15" width="166.728" height="147.723" transform="translate(332.592)" fill="#fff"/>
            <rect id="Rectangle_34-8" data-name="Rectangle 34" width="165" height="145.995" transform="translate(0 147.723)"/>
            <rect id="Rectangle_19-8" data-name="Rectangle 19" width="165.864" height="145.995" transform="translate(166.728 147.723)" fill="#fff"/>
            <rect id="Rectangle_21-8" data-name="Rectangle 21" width="165.864" height="147.723" transform="translate(166.728)"/>
          </g>
        </g>
      </g>
    </g>
    <rect id="Rectangle_38" data-name="Rectangle 38" width="1396" height="1726" transform="translate(360 262)" fill="#9c6a98"/>
  </g>
</svg>
