<svg xmlns="http://www.w3.org/2000/svg" xmlns:xlink="http://www.w3.org/1999/xlink" width="390" height="4824" viewBox="0 0 390 4824">
  <defs>
    <clipPath id="clip-iPhone_13_12_2">
      <rect width="390" height="4824"/>
    </clipPath>
  </defs>
  <g id="iPhone_13_12_2" data-name="iPhone 13, 12 – 2" clip-path="url(#clip-iPhone_13_12_2)">
    <rect width="390" height="4824" fill="#fff"/>
    <path id="Path_289" data-name="Path 289" d="M768.035.165C716.622,2.455,621.43,18.409,621.43,18.409l-29.437,18.93s-103.715.9-130.514,21.852S430.242,82.7,386.456,88.223s-15.782,28.476-157.4,27.759S90.391,156.145,110.408,173.9s37.314-18.1,198.717,13.091-21.69,47.335-28.92,63.114,59.767,34.74,134.33,33.544,48.852,2.3,43.236,11.082c-6.85,10.717-89.76,19.742-70.065,25.172,9.961,2.746,77.1,12.773,26.227,23.934s-292.318,7.131-229.707,20.71S-34.312,396.493,3.517,402.708c7.106,1.167,100.5,1.81,133.74,9.587,15.345,3.59-34.42,14.439-17.632,17.282,43.518,7.371,177.351-5.615,236.348,4.493s-26.7,35.063-.36,35.938c31.867,1.059,144.291-27.54,121.61-33.191-24.944-6.216-214.358-28.866-225.546-38.9-21.661-39.181,141.092-8.4,161.822-10.823,37.821-4.42-58.4-22.616,64.569-34.616S374.5,304.115,576.377,315.453c58.107,4.49,123.876,6.133,121.37.928-3.58-7.435-147.047-14.646-144.363-27.869,1.648-8.118,95.387-52.972-52.093-30.143s-112.84-17.007-86.118-38.4c41.819-33.477.481-48.032.481-48.032S361.535,152.191,297.609,154.8s-54.921-14.546-16.223-22.676,127.594-21.687,171.014-9.846,102.618-17.137,118.567-31.56S494.25,76.048,516.193,64.585s97.943,9.007,140.052,4.792,42.874-15.02,28.381-21.65,83.209-27.566,83.209-27.566S819.448-2.125,768.035.165Z" transform="matrix(-1, 0.017, -0.017, -1, 542.418, 4093.554)" fill="#454c81" opacity="0.9"/>
    <path id="Path_288" data-name="Path 288" d="M-2668.747,2706.24c-49.192-2.219-140.158-19.586-140.158-19.586l-28-21.214s-99.269-.267-124.721-23.787-29.675-26.381-71.535-32.318-14.834-32.119-150.4-30.277-132.346-44.456-113.015-64.695,35.545,20.212,190.34-16.26-20.309-53.423-27.078-71.231,57.543-39.757,128.9-38.945,46.784-2.954,41.493-12.858c-6.454-12.081-85.73-21.7-66.826-27.984,9.561-3.181,73.921-15.019,25.334-27.282s-279.743-5.949-219.682-21.775-208.881-34.577-172.611-41.886c6.813-1.373,96.213-2.778,128.11-11.823,14.723-4.175-32.809-16.094-16.712-19.434,41.727-8.66,169.71,5.068,226.28-6.8s-25.224-39.495,0-40.677c30.514-1.429,137.854,30.126,116.089,36.688-23.937,7.217-205.464,34.231-216.27,45.67-21.11,44.507,134.975,8.484,154.8,11.076,36.161,4.729-56.119,26.024,61.475,38.714s-99.6,55.5,93.747,41.2c55.664-5.5,118.635-7.841,116.187-1.931-3.5,8.442-140.9,17.646-138.454,32.594,1.5,9.178,90.8,59.268-50.154,34.5s-108.175,20.071-82.8,44.091c39.709,37.59,0,54.365,0,54.365s-51.992,22.746-113.159,20.258-52.71,16.863-15.746,25.786,121.927,23.622,163.6,9.9,98.064,18.652,113.192,34.862-73.574,17.162-52.681,29.978,93.839-10.907,134.106-6.442,40.9,16.69,26.959,24.3,79.385,30.6,79.385,30.6S-2619.555,2708.458-2668.747,2706.24Z" transform="translate(3282.981 987.185)" fill="#e0d9d1" opacity="0.8"/>
    <path id="Path_287" data-name="Path 287" d="M-3378.216,2771.889c49.192-2.494,140.158-22.018,140.158-22.018l28-23.847s99.269-.3,124.721-26.739,29.675-29.655,71.535-36.33,14.834-36.105,150.4-34.036,132.346-49.973,113.015-72.725-35.545,22.721-190.34-18.279,20.309-60.054,27.078-80.072-57.543-44.691-128.9-43.779-46.784-3.32-41.493-14.454c6.454-13.581,85.73-24.389,66.826-31.458-9.561-3.576-73.921-16.883-25.334-30.669s279.743-6.688,219.682-24.477,208.881-38.869,172.611-47.086c-6.813-1.543-96.213-3.123-128.11-13.29-14.723-4.693,32.809-18.092,16.712-21.847-41.727-9.735-169.71,5.7-226.28-7.646s25.224-44.4,0-45.727c-30.514-1.607-137.854,33.865-116.089,41.241,23.937,8.113,205.464,38.48,216.27,51.339,21.11,50.032-134.975,9.538-154.8,12.451-36.161,5.316,56.119,29.254-61.475,43.52s99.6,62.384-93.747,46.31c-55.664-6.188-118.635-8.815-116.187-2.171,3.5,9.49,140.9,19.836,138.454,36.64-1.5,10.317-90.8,66.625,50.154,38.78s108.175,22.562,82.8,49.563c-39.709,42.256,0,61.113,0,61.113s51.992,25.57,113.159,22.772,52.71,18.957,15.746,28.987-121.927,26.554-163.6,11.133-98.064,20.968-113.192,39.189,73.574,19.292,52.681,33.7-93.839-12.26-134.106-7.241-40.9,18.762-26.959,27.317-79.385,34.4-79.385,34.4S-3427.408,2774.383-3378.216,2771.889Z" transform="translate(3247.231 197.207)" fill="#b3bf58" opacity="0.8"/>
    <path id="Path_285" data-name="Path 285" d="M768.035.3C716.622,4.5,621.43,33.727,621.43,33.727L591.993,68.408S488.278,70.06,461.479,108.442s-31.237,43.065-75.023,53.191-15.782,52.172-157.4,50.856S90.391,286.073,110.408,318.6s37.314-33.153,198.717,23.984-21.69,86.723-28.92,115.631,59.767,63.647,134.33,61.456,48.852,4.207,43.236,20.3c-6.85,19.635-89.76,36.17-70.065,46.118,9.961,5.031,77.1,23.4,26.227,43.85S121.615,643,184.226,667.881-34.312,726.414,3.517,737.8c7.106,2.139,100.5,3.316,133.74,17.564,15.345,6.577-34.42,26.453-17.632,31.663,43.518,13.5,177.351-10.287,236.348,8.231s-26.7,64.24-.36,65.843c31.867,1.939,144.291-50.456,121.61-60.81C452.28,788.9,262.866,747.406,251.678,729.023,230.017,657.24,392.77,713.632,413.5,709.193c37.821-8.1-58.4-41.435,64.569-63.419S374.5,557.168,576.377,577.941c58.107,8.226,123.876,11.235,121.37,1.7-3.58-13.622-147.047-26.833-144.363-51.059,1.648-14.874,95.387-97.05-52.093-55.225s-112.84-31.159-86.118-70.351c41.819-61.333.481-88,.481-88s-54.118-36.18-118.045-31.4-54.921-26.649-16.223-41.545S408.979,202.329,452.4,224.023s102.618-31.4,118.567-57.82-76.716-26.876-54.774-47.877,97.943,16.5,140.052,8.78,42.874-27.518,28.381-39.666,83.209-50.5,83.209-50.5S819.448-3.893,768.035.3Z" transform="matrix(-1, 0.017, -0.017, -1, 455.871, 2517.471)" fill="#e0d9d1"/>
    <path id="Path_283" data-name="Path 283" d="M-2668.747,2735.263c-49.192-2.341-140.158-20.661-140.158-20.661l-28-22.378s-99.269-.282-124.721-25.092-29.675-27.828-71.535-34.092-14.834-33.882-150.4-31.939-132.346-46.9-113.015-68.245,35.545,21.321,190.34-17.153-20.309-56.355-27.078-75.14,57.543-41.938,128.9-41.082,46.784-3.116,41.493-13.564c-6.454-12.745-85.73-22.886-66.826-29.52,9.561-3.355,73.921-15.843,25.334-28.78s-279.743-6.276-219.682-22.969-208.881-36.474-172.611-44.185c6.813-1.448,96.213-2.931,128.11-12.472,14.723-4.4-32.809-16.977-16.712-20.5,41.727-9.135,169.71,5.346,226.28-7.175s-25.224-41.662,0-42.909c30.514-1.508,137.854,31.779,116.089,38.7-23.937,7.613-205.464,36.11-216.27,48.177-21.11,46.949,134.975,8.95,154.8,11.684,36.161,4.988-56.119,27.452,61.475,40.838s-99.6,58.541,93.747,43.457c55.664-5.806,118.635-8.271,116.187-2.038-3.5,8.905-140.9,18.614-138.454,34.383,1.5,9.681,90.8,62.52-50.154,36.391s-108.175,21.172-82.8,46.51c39.709,39.653,0,57.348,0,57.348s-51.992,23.994-113.159,21.369-52.71,17.789-15.746,27.2,121.927,24.918,163.6,10.447,98.064,19.676,113.192,36.776-73.574,18.1-52.681,31.623,93.839-11.5,134.106-6.795,40.9,17.606,26.959,25.634,79.385,32.278,79.385,32.278S-2619.555,2737.6-2668.747,2735.263Z" transform="translate(3315.481 -1035.384)" fill="#e0d9d1" opacity="0.9"/>
    <path id="Path_282" data-name="Path 282" d="M-3378.216,2771.889c49.192-2.494,140.158-22.018,140.158-22.018l28-23.847s99.269-.3,124.721-26.739,29.675-29.655,71.535-36.33,14.834-36.105,150.4-34.036,132.346-49.973,113.015-72.725-35.545,22.721-190.34-18.279,20.309-60.054,27.078-80.072-57.543-44.691-128.9-43.779-46.784-3.32-41.493-14.454c6.454-13.581,85.73-24.389,66.826-31.458-9.561-3.576-73.921-16.883-25.334-30.669s279.743-6.688,219.682-24.477,208.881-38.869,172.611-47.086c-6.813-1.543-96.213-3.123-128.11-13.29-14.723-4.693,32.809-18.092,16.712-21.847-41.727-9.735-169.71,5.7-226.28-7.646s25.224-44.4,0-45.727c-30.514-1.607-137.854,33.865-116.089,41.241,23.937,8.113,205.464,38.48,216.27,51.339,21.11,50.032-134.975,9.538-154.8,12.451-36.161,5.316,56.119,29.254-61.475,43.52s99.6,62.384-93.747,46.31c-55.664-6.188-118.635-8.815-116.187-2.171,3.5,9.49,140.9,19.836,138.454,36.64-1.5,10.317-90.8,66.625,50.154,38.78s108.175,22.562,82.8,49.563c-39.709,42.256,0,61.113,0,61.113s51.992,25.57,113.159,22.772,52.71,18.957,15.746,28.987-121.927,26.554-163.6,11.133-98.064,20.968-113.192,39.189,73.574,19.292,52.681,33.7-93.839-12.26-134.106-7.241-40.9,18.762-26.959,27.317-79.385,34.4-79.385,34.4S-3427.408,2774.383-3378.216,2771.889Z" transform="translate(3174.481 -1619.856)" fill="#b3bf58" opacity="0.8"/>
    <path id="Path_276" data-name="Path 276" d="M539.1,482.9c-36.052-2.342-102.8-18.658-102.8-18.658l-20.642-19.36s-72.727-.922-91.519-22.348-21.9-24.04-52.608-29.693-11.067-29.124-110.374-28.389-97.234-41.076-83.2-59.231,26.166,18.507,139.345-13.388-15.209-48.411-20.279-64.548,41.91-35.529,94.2-34.307,34.256-2.348,30.318-11.334c-4.8-10.961-62.942-20.191-49.131-25.744,6.985-2.808,54.062-13.064,18.391-24.478s-204.98-7.293-161.076-21.181S-23.521,77.566,3.005,71.21c4.983-1.194,70.47-1.851,93.782-9.8,10.76-3.671-24.136-14.767-12.364-17.675,30.515-7.538,124.363,5.743,165.733-4.595S231.432,3.275,249.9,2.38C272.25,1.3,351.084,30.546,335.18,36.326,317.688,42.683,184.867,65.848,177.021,76.11,161.832,116.181,275.958,84.7,290.495,87.18c26.521,4.521-40.952,23.13,45.277,35.4s-72.623,49.462,68.936,37.867c40.746-4.592,86.865-6.272,85.108-.949-2.51,7.6-103.113,14.979-101.231,28.5,1.155,8.3,66.888,54.176-36.529,30.828s-79.126,17.394-60.388,39.272c29.324,34.238.337,49.123.337,49.123s-37.949,20.2-82.776,17.529-38.512,14.876-11.376,23.192,89.472,22.18,119.919,10.07,71.958,17.526,83.142,32.277-53.8,15-38.409,26.726,68.68-9.212,98.208-4.9,30.064,15.362,19.9,22.142,58.348,28.193,58.348,28.193S575.155,485.244,539.1,482.9Z" transform="translate(62.464 92.752) rotate(1)" fill="#e0d9d1"/>
    <path id="Path_290" data-name="Path 290" d="M768.035,605.269c-51.414-2.95-146.605-23.5-146.605-23.5l-29.437-24.385s-103.715-1.161-130.514-28.148-31.237-30.279-75.023-37.4-15.782-36.682-157.4-35.757-138.663-51.737-118.645-74.6,37.314,23.31,198.717-16.863-21.69-60.975-28.92-81.3,59.767-44.75,134.33-43.21,48.852-2.958,43.236-14.276c-6.85-13.806-89.76-25.431-70.065-32.426,9.961-3.537,77.1-16.454,26.227-30.831s-292.318-9.186-229.707-26.678S-34.311,94.736,3.518,86.73c7.106-1.5,100.5-2.331,133.74-12.349,15.345-4.624-34.42-18.6-17.632-22.263,43.518-9.495,177.351,7.233,236.348-5.787s-26.7-45.167-.36-46.294c31.867-1.364,144.291,35.475,121.61,42.756C452.28,50.8,262.867,79.977,251.678,92.9,230.018,143.373,392.77,103.723,413.5,106.844c37.821,5.694-58.4,29.133,64.569,44.59s-103.566,62.3,98.308,47.694c58.107-5.784,123.876-7.9,121.37-1.2-3.58,9.578-147.047,18.866-144.363,35.9,1.648,10.458,95.387,68.236-52.094,38.829s-112.84,21.908-86.118,49.464c41.819,43.124.481,61.872.481,61.872s-54.118,25.438-118.045,22.078-54.921,18.737-16.223,29.211S408.98,463.223,452.4,447.97s102.618,22.075,118.567,40.654-76.716,18.9-54.774,33.662,97.943-11.6,140.052-6.173S699.119,535.461,684.626,544s83.209,35.509,83.209,35.509S819.449,608.219,768.035,605.269Z" transform="matrix(1, 0.017, -0.017, 1, -106.531, 4231.164)" fill="#c2cb79" opacity="0.9"/>
  </g>
</svg>
