<svg xmlns="http://www.w3.org/2000/svg" xmlns:xlink="http://www.w3.org/1999/xlink" width="1920" height="6594" viewBox="0 0 1920 6594">
  <defs>
    <clipPath id="clip-Web_1920_9">
      <rect width="1920" height="6594"/>
    </clipPath>
  </defs>
  <g id="Web_1920_9" data-name="Web 1920 – 9" clip-path="url(#clip-Web_1920_9)">
    <rect width="1920" height="6594" fill="#fff"/>
    <path id="Path_7" data-name="Path 7" d="M553.706,5128.1c-265.945-12.378-757.735-109.275-757.735-109.275l-151.355-118.355s-536.676-1.492-674.275-132.711-160.432-147.182-386.738-180.311-80.2-179.2-813.115-168.927-715.5-248.026-610.988-360.942,192.164,112.767,1029.032-90.723-109.793-298.058-146.392-397.41,311.094-221.812,696.894-217.283,252.929-16.479,224.321-71.739c-34.9-67.405-463.482-121.043-361.282-156.131,51.688-17.746,399.636-83.79,136.961-152.214s-1512.37-33.193-1187.659-121.484-1129.27-192.913-933.184-233.7c36.833-7.661,520.153-15.5,692.6-65.961,79.6-23.292-177.376-89.791-90.349-108.429,225.584-48.313,917.5,28.276,1223.331-37.948s-136.367-220.353,0-226.947c164.967-7.976,745.274,168.076,627.61,204.686-129.409,40.264-1110.793,190.983-1169.213,254.8-114.124,248.314,729.713,47.336,836.865,61.8,195.5,26.384-303.4,145.194,332.348,215.992s-538.454,309.623,506.824,229.841c300.935-30.71,641.374-43.747,628.136-10.777-18.91,47.1-761.723,98.449-748.519,181.849,8.106,51.2,490.884,330.668-271.144,192.471s-584.825,111.978-447.646,245.99c214.678,209.721,0,303.313,0,303.313s-281.083,126.9-611.768,113.02-284.966,94.085-85.126,143.865,659.171,131.793,884.484,55.253,530.161,104.066,611.945,194.505-397.764,95.75-284.806,167.251,507.322-60.849,725.012-35.939,221.092,93.12,145.751,135.579,429.177,170.717,429.177,170.717S819.65,5140.483,553.706,5128.1Z" transform="translate(2640.097 1267.643)" fill="#33396b"/>
    <path id="Path_5" data-name="Path 5" d="M5026.188,3343.164c-338.077-14.024-963.257-123.808-963.257-123.808l-192.408-134.095s-682.241-1.69-857.162-150.361-203.946-166.754-491.634-204.289-101.951-203.028-1033.659-191.392S578.5,2258.21,711.357,2130.277,955.643,2258.041,2019.5,2027.488s-139.573-337.7-186.1-450.262,395.473-251.311,885.915-246.18,321.531-18.671,285.164-81.279c-44.36-76.37-589.195-137.141-459.275-176.9,65.709-20.105,508.031-94.933,174.11-172.457S796.739,862.809,1209.523,762.776-226.044,544.208,23.228,498c46.824-8.68,661.237-17.562,880.455-74.733C1004.869,396.879,678.2,321.537,788.829,300.42c286.77-54.738,1166.355,32.036,1555.139-42.995S2170.613,7.768,2343.968.3C2553.68-8.74,3291.387,190.726,3141.807,232.2,2977.3,277.823,1729.729,448.586,1655.464,520.893,1510.386,802.23,2583.1,574.524,2719.316,590.908c248.52,29.892-385.69,164.5,422.491,244.717s-684.5,350.8,644.292,260.407c382.559-34.794,815.337-49.565,798.51-12.21-24.04,53.363-968.329,111.542-951.544,206.032,10.3,58.013,624.028,374.644-344.687,218.068s-743.449,126.87-569.063,278.7c272.906,237.612,0,343.651,0,343.651s-357.323,143.782-777.7,128.05-362.259,106.6-108.216,163,837.96,149.32,1124.387,62.6,673.958,117.905,777.926,220.372-505.652,108.483-362.055,189.494,644.925-68.941,921.661-40.719,281.06,105.5,185.283,153.608S5026.188,3200.1,5026.188,3200.1,5364.266,3357.188,5026.188,3343.164Z" transform="translate(3105.763 3851.566) rotate(-167)" fill="#e0d9d1"/>
  </g>
</svg>
