<svg xmlns="http://www.w3.org/2000/svg" width="682" height="1155" viewBox="0 0 682 1155">
  <g id="Group_90" data-name="Group 90" transform="translate(681.653) rotate(90)">
    <g id="Group_86" data-name="Group 86" transform="translate(577.5 341.341)">
      <rect id="Rectangle_33" data-name="Rectangle 33" width="191" height="169" transform="translate(0.5 171.313)" fill="#fff"/>
      <g id="Group_85" data-name="Group 85" transform="translate(0 0)">
        <rect id="Rectangle_18" data-name="Rectangle 18" width="192" height="171" transform="translate(385.5 0.313)"/>
        <g id="Group_84" data-name="Group 84">
          <rect id="Rectangle_15" data-name="Rectangle 15" width="192" height="169" transform="translate(385.5 171.313)" fill="#fff"/>
          <rect id="Rectangle_34" data-name="Rectangle 34" width="191" height="171" transform="translate(0.5 0.313)"/>
          <rect id="Rectangle_19" data-name="Rectangle 19" width="191" height="171" transform="translate(192.5 0.313)" fill="#fff"/>
          <rect id="Rectangle_21" data-name="Rectangle 21" width="191" height="169" transform="translate(192.5 171.313)"/>
        </g>
      </g>
    </g>
    <g id="Group_88" data-name="Group 88" transform="translate(577.5 -0.347)">
      <rect id="Rectangle_33-2" data-name="Rectangle 33" width="191" height="171" transform="translate(0.5 171)" fill="#fff"/>
      <g id="Group_85-2" data-name="Group 85" transform="translate(0 0)">
        <rect id="Rectangle_18-2" data-name="Rectangle 18" width="192" height="171" transform="translate(385.5 0)"/>
        <g id="Group_84-2" data-name="Group 84">
          <rect id="Rectangle_15-2" data-name="Rectangle 15" width="192" height="171" transform="translate(385.5 171)" fill="#fff"/>
          <rect id="Rectangle_34-2" data-name="Rectangle 34" width="191" height="171" transform="translate(0.5 0)"/>
          <rect id="Rectangle_19-2" data-name="Rectangle 19" width="191" height="171" transform="translate(192.5 0)" fill="#fff"/>
          <rect id="Rectangle_21-2" data-name="Rectangle 21" width="191" height="171" transform="translate(192.5 171)"/>
        </g>
      </g>
    </g>
    <g id="Group_89" data-name="Group 89" transform="translate(0 -0.347)">
      <rect id="Rectangle_33-3" data-name="Rectangle 33" width="191" height="171" transform="translate(0 0)" fill="#fff"/>
      <g id="Group_85-3" data-name="Group 85" transform="translate(0 0)">
        <rect id="Rectangle_18-3" data-name="Rectangle 18" width="193" height="171" transform="translate(385 171)"/>
        <g id="Group_84-3" data-name="Group 84">
          <rect id="Rectangle_15-3" data-name="Rectangle 15" width="193" height="171" transform="translate(385 0)" fill="#fff"/>
          <rect id="Rectangle_34-3" data-name="Rectangle 34" width="191" height="171" transform="translate(0 171)"/>
          <rect id="Rectangle_19-3" data-name="Rectangle 19" width="192" height="171" transform="translate(193 171)" fill="#fff"/>
          <rect id="Rectangle_21-3" data-name="Rectangle 21" width="192" height="171" transform="translate(193 0)"/>
        </g>
      </g>
    </g>
    <g id="Group_87" data-name="Group 87" transform="translate(0 341.341)">
      <rect id="Rectangle_33-4" data-name="Rectangle 33" width="191" height="171" transform="translate(0 0.313)" fill="#fff"/>
      <g id="Group_85-4" data-name="Group 85" transform="translate(0 0)">
        <rect id="Rectangle_18-4" data-name="Rectangle 18" width="193" height="169" transform="translate(385 171.313)"/>
        <g id="Group_84-4" data-name="Group 84" transform="translate(0 0)">
          <rect id="Rectangle_15-4" data-name="Rectangle 15" width="193" height="171" transform="translate(385 0.313)" fill="#fff"/>
          <rect id="Rectangle_34-4" data-name="Rectangle 34" width="191" height="169" transform="translate(0 171.313)"/>
          <rect id="Rectangle_19-4" data-name="Rectangle 19" width="192" height="169" transform="translate(193 171.313)" fill="#fff"/>
          <rect id="Rectangle_21-4" data-name="Rectangle 21" width="192" height="171" transform="translate(193 0.313)"/>
        </g>
      </g>
    </g>
  </g>
</svg>
