<svg xmlns="http://www.w3.org/2000/svg" width="186" height="315" viewBox="0 0 186 315">
  <g id="Group_147" data-name="Group 147" transform="translate(185.542 0.076) rotate(90)">
    <g id="Group_86" data-name="Group 86" transform="translate(157.734 93.048)">
      <rect id="Rectangle_33" data-name="Rectangle 33" width="52" height="46" transform="translate(0.19 46.495)" fill="#fff"/>
      <g id="Group_85" data-name="Group 85" transform="translate(0 0)">
        <rect id="Rectangle_18" data-name="Rectangle 18" width="53" height="46" transform="translate(104.19 0.494)"/>
        <g id="Group_84" data-name="Group 84">
          <rect id="Rectangle_15" data-name="Rectangle 15" width="53" height="46" transform="translate(104.19 46.495)" fill="#fff"/>
          <rect id="Rectangle_34" data-name="Rectangle 34" width="52" height="46" transform="translate(0.19 0.494)"/>
          <rect id="Rectangle_19" data-name="Rectangle 19" width="52" height="46" transform="translate(52.19 0.494)" fill="#fff"/>
          <rect id="Rectangle_21" data-name="Rectangle 21" width="52" height="46" transform="translate(52.19 46.495)"/>
        </g>
      </g>
    </g>
    <g id="Group_88" data-name="Group 88" transform="translate(157.734 -0.457)">
      <rect id="Rectangle_33-2" data-name="Rectangle 33" width="52" height="47" transform="translate(0.19 47)" fill="#fff"/>
      <g id="Group_85-2" data-name="Group 85" transform="translate(0 0)">
        <rect id="Rectangle_18-2" data-name="Rectangle 18" width="53" height="47" transform="translate(104.19 0)"/>
        <g id="Group_84-2" data-name="Group 84">
          <rect id="Rectangle_15-2" data-name="Rectangle 15" width="53" height="47" transform="translate(104.19 47)" fill="#fff"/>
          <rect id="Rectangle_34-2" data-name="Rectangle 34" width="52" height="47" transform="translate(0.19 0)"/>
          <rect id="Rectangle_19-2" data-name="Rectangle 19" width="52" height="47" transform="translate(52.19 0)" fill="#fff"/>
          <rect id="Rectangle_21-2" data-name="Rectangle 21" width="52" height="47" transform="translate(52.19 47)"/>
        </g>
      </g>
    </g>
    <g id="Group_89" data-name="Group 89" transform="translate(0.038 -0.457)">
      <rect id="Rectangle_33-3" data-name="Rectangle 33" width="52" height="47" transform="translate(-0.114 0)" fill="#fff"/>
      <g id="Group_85-3" data-name="Group 85" transform="translate(0 0)">
        <rect id="Rectangle_18-3" data-name="Rectangle 18" width="53" height="47" transform="translate(104.886 47)"/>
        <g id="Group_84-3" data-name="Group 84">
          <rect id="Rectangle_15-3" data-name="Rectangle 15" width="53" height="47" transform="translate(104.886 0)" fill="#fff"/>
          <rect id="Rectangle_34-3" data-name="Rectangle 34" width="52" height="47" transform="translate(-0.114 47)"/>
          <rect id="Rectangle_19-3" data-name="Rectangle 19" width="52" height="47" transform="translate(52.886 47)" fill="#fff"/>
          <rect id="Rectangle_21-3" data-name="Rectangle 21" width="52" height="47" transform="translate(52.886 0)"/>
        </g>
      </g>
    </g>
    <g id="Group_87" data-name="Group 87" transform="translate(0.038 93.048)">
      <rect id="Rectangle_33-4" data-name="Rectangle 33" width="52" height="46" transform="translate(-0.114 0.494)" fill="#fff"/>
      <g id="Group_85-4" data-name="Group 85" transform="translate(0 0)">
        <rect id="Rectangle_18-4" data-name="Rectangle 18" width="53" height="46" transform="translate(104.886 46.495)"/>
        <g id="Group_84-4" data-name="Group 84">
          <rect id="Rectangle_15-4" data-name="Rectangle 15" width="53" height="46" transform="translate(104.886 0.494)" fill="#fff"/>
          <rect id="Rectangle_34-4" data-name="Rectangle 34" width="52" height="46" transform="translate(-0.114 46.495)"/>
          <rect id="Rectangle_19-4" data-name="Rectangle 19" width="52" height="46" transform="translate(52.886 46.495)" fill="#fff"/>
          <rect id="Rectangle_21-4" data-name="Rectangle 21" width="52" height="46" transform="translate(52.886 0.494)"/>
        </g>
      </g>
    </g>
  </g>
</svg>
