<svg xmlns="http://www.w3.org/2000/svg" width="752" height="850" viewBox="0 0 752 850">
  <g id="Group_149" data-name="Group 149" transform="translate(0 -318.152)">
    <g id="Group_121" data-name="Group 121" transform="translate(250.561 318) rotate(90)">
      <g id="Group_86" data-name="Group 86" transform="translate(212.538 125.768)">
        <rect id="Rectangle_33" data-name="Rectangle 33" width="71" height="62" transform="translate(-0.386 62.793)" fill="#fff"/>
        <g id="Group_85" data-name="Group 85" transform="translate(0 0)">
          <rect id="Rectangle_18" data-name="Rectangle 18" width="70" height="63" transform="translate(142.614 -0.207)"/>
          <g id="Group_84" data-name="Group 84">
            <rect id="Rectangle_15" data-name="Rectangle 15" width="70" height="62" transform="translate(142.614 62.793)" fill="#fff"/>
            <rect id="Rectangle_34" data-name="Rectangle 34" width="71" height="63" transform="translate(-0.386 -0.207)"/>
            <rect id="Rectangle_19" data-name="Rectangle 19" width="70" height="63" transform="translate(71.614 -0.207)" fill="#fff"/>
            <rect id="Rectangle_21" data-name="Rectangle 21" width="70" height="62" transform="translate(71.614 62.793)"/>
          </g>
        </g>
      </g>
      <g id="Group_88" data-name="Group 88" transform="translate(212.538 0)">
        <rect id="Rectangle_33-2" data-name="Rectangle 33" width="71" height="63" transform="translate(-0.386 62.561)" fill="#fff"/>
        <g id="Group_85-2" data-name="Group 85" transform="translate(0 0)">
          <rect id="Rectangle_18-2" data-name="Rectangle 18" width="70" height="63" transform="translate(142.614 -0.439)"/>
          <g id="Group_84-2" data-name="Group 84" transform="translate(0 0)">
            <rect id="Rectangle_15-2" data-name="Rectangle 15" width="70" height="63" transform="translate(142.614 62.561)" fill="#fff"/>
            <rect id="Rectangle_34-2" data-name="Rectangle 34" width="71" height="63" transform="translate(-0.386 -0.439)"/>
            <rect id="Rectangle_19-2" data-name="Rectangle 19" width="70" height="63" transform="translate(71.614 -0.439)" fill="#fff"/>
            <rect id="Rectangle_21-2" data-name="Rectangle 21" width="70" height="63" transform="translate(71.614 62.561)"/>
          </g>
        </g>
      </g>
      <g id="Group_89" data-name="Group 89" transform="translate(0 0)">
        <rect id="Rectangle_33-3" data-name="Rectangle 33" width="70" height="63" transform="translate(0.152 -0.439)" fill="#fff"/>
        <g id="Group_85-3" data-name="Group 85" transform="translate(0 0)">
          <rect id="Rectangle_18-3" data-name="Rectangle 18" width="70" height="63" transform="translate(142.152 62.561)"/>
          <g id="Group_84-3" data-name="Group 84">
            <rect id="Rectangle_15-3" data-name="Rectangle 15" width="70" height="63" transform="translate(142.152 -0.439)" fill="#fff"/>
            <rect id="Rectangle_34-3" data-name="Rectangle 34" width="70" height="63" transform="translate(0.152 62.561)"/>
            <rect id="Rectangle_19-3" data-name="Rectangle 19" width="71" height="63" transform="translate(71.152 62.561)" fill="#fff"/>
            <rect id="Rectangle_21-3" data-name="Rectangle 21" width="71" height="63" transform="translate(71.152 -0.439)"/>
          </g>
        </g>
      </g>
      <g id="Group_87" data-name="Group 87" transform="translate(0 125.768)">
        <rect id="Rectangle_33-4" data-name="Rectangle 33" width="70" height="63" transform="translate(0.152 -0.207)" fill="#fff"/>
        <g id="Group_85-4" data-name="Group 85" transform="translate(0 0)">
          <rect id="Rectangle_18-4" data-name="Rectangle 18" width="70" height="62" transform="translate(142.152 62.793)"/>
          <g id="Group_84-4" data-name="Group 84" transform="translate(0 0)">
            <rect id="Rectangle_15-4" data-name="Rectangle 15" width="70" height="63" transform="translate(142.152 -0.207)" fill="#fff"/>
            <rect id="Rectangle_34-4" data-name="Rectangle 34" width="70" height="62" transform="translate(0.152 62.793)"/>
            <rect id="Rectangle_19-4" data-name="Rectangle 19" width="71" height="62" transform="translate(71.152 62.793)" fill="#fff"/>
            <rect id="Rectangle_21-4" data-name="Rectangle 21" width="71" height="63" transform="translate(71.152 -0.207)"/>
          </g>
        </g>
      </g>
    </g>
    <g id="Group_122" data-name="Group 122" transform="translate(501.122 318) rotate(90)">
      <g id="Group_86-2" data-name="Group 86" transform="translate(212.538 125.768)">
        <rect id="Rectangle_33-5" data-name="Rectangle 33" width="71" height="62" transform="translate(-0.386 62.354)" fill="#fff"/>
        <g id="Group_85-5" data-name="Group 85" transform="translate(0 0)">
          <rect id="Rectangle_18-5" data-name="Rectangle 18" width="70" height="62" transform="translate(142.614 0.354)"/>
          <g id="Group_84-5" data-name="Group 84">
            <rect id="Rectangle_15-5" data-name="Rectangle 15" width="70" height="62" transform="translate(142.614 62.354)" fill="#fff"/>
            <rect id="Rectangle_34-5" data-name="Rectangle 34" width="71" height="62" transform="translate(-0.386 0.354)"/>
            <rect id="Rectangle_19-5" data-name="Rectangle 19" width="70" height="62" transform="translate(71.614 0.354)" fill="#fff"/>
            <rect id="Rectangle_21-5" data-name="Rectangle 21" width="70" height="62" transform="translate(71.614 62.354)"/>
          </g>
        </g>
      </g>
      <g id="Group_88-2" data-name="Group 88" transform="translate(212.538 0)">
        <rect id="Rectangle_33-6" data-name="Rectangle 33" width="71" height="64" transform="translate(-0.386 62.122)" fill="#fff"/>
        <g id="Group_85-6" data-name="Group 85" transform="translate(0 0)">
          <rect id="Rectangle_18-6" data-name="Rectangle 18" width="70" height="62" transform="translate(142.614 0.122)"/>
          <g id="Group_84-6" data-name="Group 84" transform="translate(0 0)">
            <rect id="Rectangle_15-6" data-name="Rectangle 15" width="70" height="64" transform="translate(142.614 62.122)" fill="#fff"/>
            <rect id="Rectangle_34-6" data-name="Rectangle 34" width="71" height="62" transform="translate(-0.386 0.122)"/>
            <rect id="Rectangle_19-6" data-name="Rectangle 19" width="70" height="62" transform="translate(71.614 0.122)" fill="#fff"/>
            <rect id="Rectangle_21-6" data-name="Rectangle 21" width="70" height="64" transform="translate(71.614 62.122)"/>
          </g>
        </g>
      </g>
      <g id="Group_89-2" data-name="Group 89" transform="translate(0 0)">
        <rect id="Rectangle_33-7" data-name="Rectangle 33" width="70" height="62" transform="translate(0.152 0.122)" fill="#fff"/>
        <g id="Group_85-7" data-name="Group 85" transform="translate(0 0)">
          <rect id="Rectangle_18-7" data-name="Rectangle 18" width="70" height="64" transform="translate(142.152 62.122)"/>
          <g id="Group_84-7" data-name="Group 84">
            <rect id="Rectangle_15-7" data-name="Rectangle 15" width="70" height="62" transform="translate(142.152 0.122)" fill="#fff"/>
            <rect id="Rectangle_34-7" data-name="Rectangle 34" width="70" height="64" transform="translate(0.152 62.122)"/>
            <rect id="Rectangle_19-7" data-name="Rectangle 19" width="71" height="64" transform="translate(71.152 62.122)" fill="#fff"/>
            <rect id="Rectangle_21-7" data-name="Rectangle 21" width="71" height="62" transform="translate(71.152 0.122)"/>
          </g>
        </g>
      </g>
      <g id="Group_87-2" data-name="Group 87" transform="translate(0 125.768)">
        <rect id="Rectangle_33-8" data-name="Rectangle 33" width="70" height="62" transform="translate(0.152 0.354)" fill="#fff"/>
        <g id="Group_85-8" data-name="Group 85" transform="translate(0 0)">
          <rect id="Rectangle_18-8" data-name="Rectangle 18" width="70" height="62" transform="translate(142.152 62.354)"/>
          <g id="Group_84-8" data-name="Group 84" transform="translate(0 0)">
            <rect id="Rectangle_15-8" data-name="Rectangle 15" width="70" height="62" transform="translate(142.152 0.354)" fill="#fff"/>
            <rect id="Rectangle_34-8" data-name="Rectangle 34" width="70" height="62" transform="translate(0.152 62.354)"/>
            <rect id="Rectangle_19-8" data-name="Rectangle 19" width="71" height="62" transform="translate(71.152 62.354)" fill="#fff"/>
            <rect id="Rectangle_21-8" data-name="Rectangle 21" width="71" height="62" transform="translate(71.152 0.354)"/>
          </g>
        </g>
      </g>
    </g>
    <g id="Group_123" data-name="Group 123" transform="translate(751.683 318) rotate(90)">
      <g id="Group_86-3" data-name="Group 86" transform="translate(212.538 125.768)">
        <rect id="Rectangle_33-9" data-name="Rectangle 33" width="71" height="63" transform="translate(-0.386 61.915)" fill="#fff"/>
        <g id="Group_85-9" data-name="Group 85" transform="translate(0 0)">
          <rect id="Rectangle_18-9" data-name="Rectangle 18" width="70" height="62" transform="translate(142.614 -0.085)"/>
          <g id="Group_84-9" data-name="Group 84">
            <rect id="Rectangle_15-9" data-name="Rectangle 15" width="70" height="63" transform="translate(142.614 61.915)" fill="#fff"/>
            <rect id="Rectangle_34-9" data-name="Rectangle 34" width="71" height="62" transform="translate(-0.386 -0.085)"/>
            <rect id="Rectangle_19-9" data-name="Rectangle 19" width="70" height="62" transform="translate(71.614 -0.085)" fill="#fff"/>
            <rect id="Rectangle_21-9" data-name="Rectangle 21" width="70" height="63" transform="translate(71.614 61.915)"/>
          </g>
        </g>
      </g>
      <g id="Group_88-3" data-name="Group 88" transform="translate(212.538 0)">
        <rect id="Rectangle_33-10" data-name="Rectangle 33" width="71" height="63" transform="translate(-0.386 62.683)" fill="#fff"/>
        <g id="Group_85-10" data-name="Group 85" transform="translate(0 0)">
          <rect id="Rectangle_18-10" data-name="Rectangle 18" width="70" height="63" transform="translate(142.614 -0.317)"/>
          <g id="Group_84-10" data-name="Group 84" transform="translate(0 0)">
            <rect id="Rectangle_15-10" data-name="Rectangle 15" width="70" height="63" transform="translate(142.614 62.683)" fill="#fff"/>
            <rect id="Rectangle_34-10" data-name="Rectangle 34" width="71" height="63" transform="translate(-0.386 -0.317)"/>
            <rect id="Rectangle_19-10" data-name="Rectangle 19" width="70" height="63" transform="translate(71.614 -0.317)" fill="#fff"/>
            <rect id="Rectangle_21-10" data-name="Rectangle 21" width="70" height="63" transform="translate(71.614 62.683)"/>
          </g>
        </g>
      </g>
      <g id="Group_89-3" data-name="Group 89" transform="translate(0 0)">
        <rect id="Rectangle_33-11" data-name="Rectangle 33" width="70" height="63" transform="translate(0.152 -0.317)" fill="#fff"/>
        <g id="Group_85-11" data-name="Group 85" transform="translate(0 0)">
          <rect id="Rectangle_18-11" data-name="Rectangle 18" width="70" height="63" transform="translate(142.152 62.683)"/>
          <g id="Group_84-11" data-name="Group 84">
            <rect id="Rectangle_15-11" data-name="Rectangle 15" width="70" height="63" transform="translate(142.152 -0.317)" fill="#fff"/>
            <rect id="Rectangle_34-11" data-name="Rectangle 34" width="70" height="63" transform="translate(0.152 62.683)"/>
            <rect id="Rectangle_19-11" data-name="Rectangle 19" width="71" height="63" transform="translate(71.152 62.683)" fill="#fff"/>
            <rect id="Rectangle_21-11" data-name="Rectangle 21" width="71" height="63" transform="translate(71.152 -0.317)"/>
          </g>
        </g>
      </g>
      <g id="Group_87-3" data-name="Group 87" transform="translate(0 125.768)">
        <rect id="Rectangle_33-12" data-name="Rectangle 33" width="70" height="62" transform="translate(0.152 -0.085)" fill="#fff"/>
        <g id="Group_85-12" data-name="Group 85" transform="translate(0 0)">
          <rect id="Rectangle_18-12" data-name="Rectangle 18" width="70" height="63" transform="translate(142.152 61.915)"/>
          <g id="Group_84-12" data-name="Group 84" transform="translate(0 0)">
            <rect id="Rectangle_15-12" data-name="Rectangle 15" width="70" height="62" transform="translate(142.152 -0.085)" fill="#fff"/>
            <rect id="Rectangle_34-12" data-name="Rectangle 34" width="70" height="63" transform="translate(0.152 61.915)"/>
            <rect id="Rectangle_19-12" data-name="Rectangle 19" width="71" height="63" transform="translate(71.152 61.915)" fill="#fff"/>
            <rect id="Rectangle_21-12" data-name="Rectangle 21" width="71" height="62" transform="translate(71.152 -0.085)"/>
          </g>
        </g>
      </g>
    </g>
    <g id="Group_124" data-name="Group 124" transform="translate(501.122 743.076) rotate(90)">
      <g id="Group_86-4" data-name="Group 86" transform="translate(212.538 125.768)">
        <rect id="Rectangle_33-13" data-name="Rectangle 33" width="71" height="62" transform="translate(-0.462 62.354)" fill="#fff"/>
        <g id="Group_85-13" data-name="Group 85" transform="translate(0 0)">
          <rect id="Rectangle_18-13" data-name="Rectangle 18" width="70" height="62" transform="translate(142.538 0.354)"/>
          <g id="Group_84-13" data-name="Group 84">
            <rect id="Rectangle_15-13" data-name="Rectangle 15" width="70" height="62" transform="translate(142.538 62.354)" fill="#fff"/>
            <rect id="Rectangle_34-13" data-name="Rectangle 34" width="71" height="62" transform="translate(-0.462 0.354)"/>
            <rect id="Rectangle_19-13" data-name="Rectangle 19" width="70" height="62" transform="translate(71.538 0.354)" fill="#fff"/>
            <rect id="Rectangle_21-13" data-name="Rectangle 21" width="70" height="62" transform="translate(71.538 62.354)"/>
          </g>
        </g>
      </g>
      <g id="Group_88-4" data-name="Group 88" transform="translate(212.538 0)">
        <rect id="Rectangle_33-14" data-name="Rectangle 33" width="71" height="64" transform="translate(-0.462 62.122)" fill="#fff"/>
        <g id="Group_85-14" data-name="Group 85" transform="translate(0 0)">
          <rect id="Rectangle_18-14" data-name="Rectangle 18" width="70" height="62" transform="translate(142.538 0.122)"/>
          <g id="Group_84-14" data-name="Group 84" transform="translate(0 0)">
            <rect id="Rectangle_15-14" data-name="Rectangle 15" width="70" height="64" transform="translate(142.538 62.122)" fill="#fff"/>
            <rect id="Rectangle_34-14" data-name="Rectangle 34" width="71" height="62" transform="translate(-0.462 0.122)"/>
            <rect id="Rectangle_19-14" data-name="Rectangle 19" width="70" height="62" transform="translate(71.538 0.122)" fill="#fff"/>
            <rect id="Rectangle_21-14" data-name="Rectangle 21" width="70" height="64" transform="translate(71.538 62.122)"/>
          </g>
        </g>
      </g>
      <g id="Group_89-4" data-name="Group 89" transform="translate(0 0)">
        <rect id="Rectangle_33-15" data-name="Rectangle 33" width="70" height="62" transform="translate(0.076 0.122)" fill="#fff"/>
        <g id="Group_85-15" data-name="Group 85" transform="translate(0 0)">
          <rect id="Rectangle_18-15" data-name="Rectangle 18" width="70" height="64" transform="translate(142.076 62.122)"/>
          <g id="Group_84-15" data-name="Group 84">
            <rect id="Rectangle_15-15" data-name="Rectangle 15" width="70" height="62" transform="translate(142.076 0.122)" fill="#fff"/>
            <rect id="Rectangle_34-15" data-name="Rectangle 34" width="70" height="64" transform="translate(0.076 62.122)"/>
            <rect id="Rectangle_19-15" data-name="Rectangle 19" width="71" height="64" transform="translate(71.076 62.122)" fill="#fff"/>
            <rect id="Rectangle_21-15" data-name="Rectangle 21" width="71" height="62" transform="translate(71.076 0.122)"/>
          </g>
        </g>
      </g>
      <g id="Group_87-4" data-name="Group 87" transform="translate(0 125.768)">
        <rect id="Rectangle_33-16" data-name="Rectangle 33" width="70" height="62" transform="translate(0.076 0.354)" fill="#fff"/>
        <g id="Group_85-16" data-name="Group 85" transform="translate(0 0)">
          <rect id="Rectangle_18-16" data-name="Rectangle 18" width="70" height="62" transform="translate(142.076 62.354)"/>
          <g id="Group_84-16" data-name="Group 84" transform="translate(0 0)">
            <rect id="Rectangle_15-16" data-name="Rectangle 15" width="70" height="62" transform="translate(142.076 0.354)" fill="#fff"/>
            <rect id="Rectangle_34-16" data-name="Rectangle 34" width="70" height="62" transform="translate(0.076 62.354)"/>
            <rect id="Rectangle_19-16" data-name="Rectangle 19" width="71" height="62" transform="translate(71.076 62.354)" fill="#fff"/>
            <rect id="Rectangle_21-16" data-name="Rectangle 21" width="71" height="62" transform="translate(71.076 0.354)"/>
          </g>
        </g>
      </g>
    </g>
    <g id="Group_125" data-name="Group 125" transform="translate(751.683 743.076) rotate(90)">
      <g id="Group_86-5" data-name="Group 86" transform="translate(212.538 125.768)">
        <rect id="Rectangle_33-17" data-name="Rectangle 33" width="71" height="63" transform="translate(-0.462 61.915)" fill="#fff"/>
        <g id="Group_85-17" data-name="Group 85" transform="translate(0 0)">
          <rect id="Rectangle_18-17" data-name="Rectangle 18" width="70" height="62" transform="translate(142.538 -0.085)"/>
          <g id="Group_84-17" data-name="Group 84">
            <rect id="Rectangle_15-17" data-name="Rectangle 15" width="70" height="63" transform="translate(142.538 61.915)" fill="#fff"/>
            <rect id="Rectangle_34-17" data-name="Rectangle 34" width="71" height="62" transform="translate(-0.462 -0.085)"/>
            <rect id="Rectangle_19-17" data-name="Rectangle 19" width="70" height="62" transform="translate(71.538 -0.085)" fill="#fff"/>
            <rect id="Rectangle_21-17" data-name="Rectangle 21" width="70" height="63" transform="translate(71.538 61.915)"/>
          </g>
        </g>
      </g>
      <g id="Group_88-5" data-name="Group 88" transform="translate(212.538 0)">
        <rect id="Rectangle_33-18" data-name="Rectangle 33" width="71" height="63" transform="translate(-0.462 62.683)" fill="#fff"/>
        <g id="Group_85-18" data-name="Group 85" transform="translate(0 0)">
          <rect id="Rectangle_18-18" data-name="Rectangle 18" width="70" height="63" transform="translate(142.538 -0.317)"/>
          <g id="Group_84-18" data-name="Group 84" transform="translate(0 0)">
            <rect id="Rectangle_15-18" data-name="Rectangle 15" width="70" height="63" transform="translate(142.538 62.683)" fill="#fff"/>
            <rect id="Rectangle_34-18" data-name="Rectangle 34" width="71" height="63" transform="translate(-0.462 -0.317)"/>
            <rect id="Rectangle_19-18" data-name="Rectangle 19" width="70" height="63" transform="translate(71.538 -0.317)" fill="#fff"/>
            <rect id="Rectangle_21-18" data-name="Rectangle 21" width="70" height="63" transform="translate(71.538 62.683)"/>
          </g>
        </g>
      </g>
      <g id="Group_89-5" data-name="Group 89" transform="translate(0 0)">
        <rect id="Rectangle_33-19" data-name="Rectangle 33" width="70" height="63" transform="translate(0.076 -0.317)" fill="#fff"/>
        <g id="Group_85-19" data-name="Group 85" transform="translate(0 0)">
          <rect id="Rectangle_18-19" data-name="Rectangle 18" width="70" height="63" transform="translate(142.076 62.683)"/>
          <g id="Group_84-19" data-name="Group 84">
            <rect id="Rectangle_15-19" data-name="Rectangle 15" width="70" height="63" transform="translate(142.076 -0.317)" fill="#fff"/>
            <rect id="Rectangle_34-19" data-name="Rectangle 34" width="70" height="63" transform="translate(0.076 62.683)"/>
            <rect id="Rectangle_19-19" data-name="Rectangle 19" width="71" height="63" transform="translate(71.076 62.683)" fill="#fff"/>
            <rect id="Rectangle_21-19" data-name="Rectangle 21" width="71" height="63" transform="translate(71.076 -0.317)"/>
          </g>
        </g>
      </g>
      <g id="Group_87-5" data-name="Group 87" transform="translate(0 125.768)">
        <rect id="Rectangle_33-20" data-name="Rectangle 33" width="70" height="62" transform="translate(0.076 -0.085)" fill="#fff"/>
        <g id="Group_85-20" data-name="Group 85" transform="translate(0 0)">
          <rect id="Rectangle_18-20" data-name="Rectangle 18" width="70" height="63" transform="translate(142.076 61.915)"/>
          <g id="Group_84-20" data-name="Group 84" transform="translate(0 0)">
            <rect id="Rectangle_15-20" data-name="Rectangle 15" width="70" height="62" transform="translate(142.076 -0.085)" fill="#fff"/>
            <rect id="Rectangle_34-20" data-name="Rectangle 34" width="70" height="63" transform="translate(0.076 61.915)"/>
            <rect id="Rectangle_19-20" data-name="Rectangle 19" width="71" height="63" transform="translate(71.076 61.915)" fill="#fff"/>
            <rect id="Rectangle_21-20" data-name="Rectangle 21" width="71" height="62" transform="translate(71.076 -0.085)"/>
          </g>
        </g>
      </g>
    </g>
    <g id="Group_126" data-name="Group 126" transform="translate(250.561 743.076) rotate(90)">
      <g id="Group_86-6" data-name="Group 86" transform="translate(212.538 125.768)">
        <rect id="Rectangle_33-21" data-name="Rectangle 33" width="71" height="62" transform="translate(-0.462 62.793)" fill="#fff"/>
        <g id="Group_85-21" data-name="Group 85" transform="translate(0 0)">
          <rect id="Rectangle_18-21" data-name="Rectangle 18" width="70" height="63" transform="translate(142.538 -0.207)"/>
          <g id="Group_84-21" data-name="Group 84">
            <rect id="Rectangle_15-21" data-name="Rectangle 15" width="70" height="62" transform="translate(142.538 62.793)" fill="#fff"/>
            <rect id="Rectangle_34-21" data-name="Rectangle 34" width="71" height="63" transform="translate(-0.462 -0.207)"/>
            <rect id="Rectangle_19-21" data-name="Rectangle 19" width="70" height="63" transform="translate(71.538 -0.207)" fill="#fff"/>
            <rect id="Rectangle_21-21" data-name="Rectangle 21" width="70" height="62" transform="translate(71.538 62.793)"/>
          </g>
        </g>
      </g>
      <g id="Group_88-6" data-name="Group 88" transform="translate(212.538 0)">
        <rect id="Rectangle_33-22" data-name="Rectangle 33" width="71" height="63" transform="translate(-0.462 62.561)" fill="#fff"/>
        <g id="Group_85-22" data-name="Group 85" transform="translate(0 0)">
          <rect id="Rectangle_18-22" data-name="Rectangle 18" width="70" height="63" transform="translate(142.538 -0.439)"/>
          <g id="Group_84-22" data-name="Group 84" transform="translate(0 0)">
            <rect id="Rectangle_15-22" data-name="Rectangle 15" width="70" height="63" transform="translate(142.538 62.561)" fill="#fff"/>
            <rect id="Rectangle_34-22" data-name="Rectangle 34" width="71" height="63" transform="translate(-0.462 -0.439)"/>
            <rect id="Rectangle_19-22" data-name="Rectangle 19" width="70" height="63" transform="translate(71.538 -0.439)" fill="#fff"/>
            <rect id="Rectangle_21-22" data-name="Rectangle 21" width="70" height="63" transform="translate(71.538 62.561)"/>
          </g>
        </g>
      </g>
      <g id="Group_89-6" data-name="Group 89" transform="translate(0 0)">
        <rect id="Rectangle_33-23" data-name="Rectangle 33" width="70" height="63" transform="translate(0.076 -0.439)" fill="#fff"/>
        <g id="Group_85-23" data-name="Group 85" transform="translate(0 0)">
          <rect id="Rectangle_18-23" data-name="Rectangle 18" width="70" height="63" transform="translate(142.076 62.561)"/>
          <g id="Group_84-23" data-name="Group 84">
            <rect id="Rectangle_15-23" data-name="Rectangle 15" width="70" height="63" transform="translate(142.076 -0.439)" fill="#fff"/>
            <rect id="Rectangle_34-23" data-name="Rectangle 34" width="70" height="63" transform="translate(0.076 62.561)"/>
            <rect id="Rectangle_19-23" data-name="Rectangle 19" width="71" height="63" transform="translate(71.076 62.561)" fill="#fff"/>
            <rect id="Rectangle_21-23" data-name="Rectangle 21" width="71" height="63" transform="translate(71.076 -0.439)"/>
          </g>
        </g>
      </g>
      <g id="Group_87-6" data-name="Group 87" transform="translate(0 125.768)">
        <rect id="Rectangle_33-24" data-name="Rectangle 33" width="70" height="63" transform="translate(0.076 -0.207)" fill="#fff"/>
        <g id="Group_85-24" data-name="Group 85" transform="translate(0 0)">
          <rect id="Rectangle_18-24" data-name="Rectangle 18" width="70" height="62" transform="translate(142.076 62.793)"/>
          <g id="Group_84-24" data-name="Group 84" transform="translate(0 0)">
            <rect id="Rectangle_15-24" data-name="Rectangle 15" width="70" height="63" transform="translate(142.076 -0.207)" fill="#fff"/>
            <rect id="Rectangle_34-24" data-name="Rectangle 34" width="70" height="62" transform="translate(0.076 62.793)"/>
            <rect id="Rectangle_19-24" data-name="Rectangle 19" width="71" height="62" transform="translate(71.076 62.793)" fill="#fff"/>
            <rect id="Rectangle_21-24" data-name="Rectangle 21" width="71" height="63" transform="translate(71.076 -0.207)"/>
          </g>
        </g>
      </g>
    </g>
  </g>
</svg>
