<svg xmlns="http://www.w3.org/2000/svg" xmlns:xlink="http://www.w3.org/1999/xlink" width="1920" height="6594" viewBox="0 0 1920 6594">
  <defs>
    <clipPath id="clip-Web_1920_9">
      <rect width="1920" height="6594"/>
    </clipPath>
  </defs>
  <g id="Web_1920_9" data-name="Web 1920 – 9" clip-path="url(#clip-Web_1920_9)">
    <rect width="1920" height="6594" fill="#fff"/>
    <path id="Path_7" data-name="Path 7" d="M553.706,5128.1c-265.945-12.378-757.735-109.275-757.735-109.275l-151.355-118.355s-536.676-1.492-674.275-132.711-160.432-147.182-386.738-180.311-80.2-179.2-813.115-168.927-715.5-248.026-610.988-360.942,192.164,112.767,1029.032-90.723-109.793-298.058-146.392-397.41,311.094-221.812,696.894-217.283,252.929-16.479,224.321-71.739c-34.9-67.405-463.482-121.043-361.282-156.131,51.688-17.746,399.636-83.79,136.961-152.214s-1512.37-33.193-1187.659-121.484-1129.27-192.913-933.184-233.7c36.833-7.661,520.153-15.5,692.6-65.961,79.6-23.292-177.376-89.791-90.349-108.429,225.584-48.313,917.5,28.276,1223.331-37.948s-136.367-220.353,0-226.947c164.967-7.976,745.274,168.076,627.61,204.686-129.409,40.264-1110.793,190.983-1169.213,254.8-114.124,248.314,729.713,47.336,836.865,61.8,195.5,26.384-303.4,145.194,332.348,215.992s-538.454,309.623,506.824,229.841c300.935-30.71,641.374-43.747,628.136-10.777-18.91,47.1-761.723,98.449-748.519,181.849,8.106,51.2,490.884,330.668-271.144,192.471s-584.825,111.978-447.646,245.99c214.678,209.721,0,303.313,0,303.313s-281.083,126.9-611.768,113.02-284.966,94.085-85.126,143.865,659.171,131.793,884.484,55.253,530.161,104.066,611.945,194.505-397.764,95.75-284.806,167.251,507.322-60.849,725.012-35.939,221.092,93.12,145.751,135.579,429.177,170.717,429.177,170.717S819.65,5140.483,553.706,5128.1Z" transform="translate(2640.097 1267.643)" fill="#33396b"/>
    <path id="Path_5" data-name="Path 5" d="M4862.13,3441.7c-327.042-14.437-931.816-127.457-931.816-127.457L3744.186,3176.2s-659.972-1.74-829.184-154.792-197.289-171.669-475.587-210.311-98.624-209.012-999.92-197.033-879.879-289.293-751.357-421S924.45,2324.6,1953.581,2087.248s-135.017-347.65-180.024-463.533,382.565-258.718,857-253.436,311.037-19.221,275.856-83.676c-42.912-78.62-569.963-141.183-444.284-182.109,63.564-20.7,491.449-97.731,168.427-177.54S770.733,888.24,1170.044,785.259-218.666,560.248,22.47,512.68c45.3-8.936,639.654-18.079,851.716-76.936,97.884-27.167-218.126-104.73-111.1-126.469,277.41-56.351,1128.284,32.98,1504.378-44.262S2099.764,8,2267.459.306c202.868-9.3,916.5,196.041,771.8,238.742-159.139,46.963-1365.988,222.759-1437.828,297.2-140.343,289.629,897.358,55.212,1029.127,72.079,240.408,30.773-373.1,169.352,408.7,251.93S2377.1,1221.394,3662.52,1128.337c370.073-35.82,788.724-51.026,772.445-12.57-23.255,54.936-936.722,114.829-920.484,212.105,9.969,59.722,603.66,385.686-333.436,224.5s-719.183,130.609-550.488,286.918c264,244.616,0,353.78,0,353.78s-345.659,148.02-752.315,131.824-350.435,109.74-104.683,167.8,810.609,153.721,1087.687,64.447,651.959,121.381,752.534,226.868-489.147,111.68-350.238,195.079,623.874-70.973,891.577-41.918S4427,3045.78,4334.353,3095.3s527.777,199.122,527.777,199.122S5189.173,3456.142,4862.13,3441.7Z" transform="translate(3132 3442.616) rotate(180)" fill="#e0d9d1"/>
  </g>
</svg>
