<svg xmlns="http://www.w3.org/2000/svg" xmlns:xlink="http://www.w3.org/1999/xlink" width="1920" height="8227" viewBox="0 0 1920 8227">
  <defs>
    <clipPath id="clip-Web_1920_2">
      <rect width="1920" height="8227"/>
    </clipPath>
  </defs>
  <g id="Web_1920_2" data-name="Web 1920 – 2" clip-path="url(#clip-Web_1920_2)">
    <rect width="1920" height="8227" fill="#fff"/>
    <path id="Path_293" data-name="Path 293" d="M-3331.753,4035.363c153.732-7.794,438.017-68.808,438.017-68.808l87.493-74.525s310.23-.938,389.771-83.564,92.739-92.677,223.559-113.537,46.359-112.835,470.03-106.368,413.6-156.174,353.188-227.276-111.082,71.007-594.844-57.125,63.468-187.679,84.624-250.239-179.832-139.668-402.849-136.817-146.208-10.376-129.671-45.171c20.171-42.443,267.921-76.218,208.843-98.311-29.879-11.175-231.014-52.762-79.172-95.845s874.243-20.9,686.54-76.495,652.787-121.473,539.438-147.153c-21.293-4.824-300.681-9.76-400.364-41.533-46.013-14.666,102.534-56.54,52.228-68.274-130.4-30.423-530.37,17.8-707.161-23.9s78.829-138.75,0-142.9c-95.361-5.022-430.814,105.833-362.8,128.885,74.806,25.354,642.106,120.258,675.877,160.442,65.971,156.357-421.819,29.806-483.76,38.912-113.008,16.613,175.383,91.425-192.117,136.005s311.26,194.961-292.976,144.725c-173.959-19.339-370.753-27.548-363.1-6.786,10.933,29.657,440.322,61.99,432.689,114.5-4.686,32.242-283.76,208.212,156.738,121.194s338.064,70.508,258.767,154.892c-124.1,132.057,0,190.987,0,190.987s162.483,79.91,353.64,71.166,164.729,59.244,49.209,90.588-381.042,82.986-511.287,34.792-306.466,65.527-353.742,122.473,229.932,60.293,164.636,105.314-293.263-38.313-419.1-22.629-127.8,58.634-84.253,85.37-248.091,107.494-248.091,107.494S-3485.486,4043.158-3331.753,4035.363Z" transform="translate(3662.579 910.145)" fill="#a17496" opacity="0.8"/>
    <path id="Path_292" data-name="Path 292" d="M2415.946,2157.576c-161.691-10.5-461.062-83.681-461.062-83.681l-92.577-86.829s-326.175-4.135-410.455-100.229-98.237-107.818-235.941-133.168-49.634-130.616-495.016-127.324S284.81,1442.122,347.764,1360.7s117.351,83,624.947-60.046-68.213-217.12-90.951-289.493S1069.724,851.815,1304.218,857.3s153.637-10.532,135.974-50.833C1418.649,757.307,1157.906,715.91,1219.844,691c31.326-12.6,242.463-58.589,82.48-109.782s-919.316-32.709-722.411-94.993S-107.368,339.685,11.6,311.178c22.348-5.355,316.049-8.3,420.6-43.973,48.259-16.466-108.248-66.228-55.45-79.272,136.859-33.809,557.755,25.755,743.3-20.608S1036.072,6.5,1118.917,2.482C1219.137-2.373,1572.7,128.8,1501.37,154.725c-78.448,28.51-674.139,132.405-709.325,178.428-68.122,179.715,443.723,38.532,508.917,49.645,118.945,20.275-183.668,103.737,203.063,158.776S1178.32,763.409,1813.2,711.4c182.742-20.6,389.58-28.129,381.7-4.256-11.258,34.1-462.45,67.178-454.01,127.83,5.182,37.238,299.985,242.974-163.83,138.26s-354.872,78.01-270.833,176.13c131.517,153.553,1.512,220.313,1.512,220.313s-170.2,90.58-371.241,78.614-172.721,66.719-51.019,104.013,401.271,99.476,537.825,45.163,322.726,78.6,372.882,144.759-241.266,67.286-172.259,119.864,308.024-41.313,440.451-21.982,134.834,68.9,89.256,99.307,261.686,126.442,261.686,126.442S2577.636,2168.079,2415.946,2157.576Z" transform="translate(-304.048 2975.64) rotate(1)" fill="#e0d9d1" opacity="0.9"/>
    <path id="Path_291" data-name="Path 291" d="M-3331.753,4035.363c153.732-7.794,438.017-68.808,438.017-68.808l87.493-74.525s310.23-.938,389.771-83.564,92.739-92.677,223.559-113.537,46.359-112.835,470.03-106.368,413.6-156.174,353.188-227.276-111.082,71.007-594.844-57.125,63.468-187.679,84.624-250.239-179.832-139.668-402.849-136.817-146.208-10.376-129.671-45.171c20.171-42.443,267.921-76.218,208.843-98.311-29.879-11.175-231.014-52.762-79.172-95.845s874.243-20.9,686.54-76.495,652.787-121.473,539.438-147.153c-21.293-4.824-300.681-9.76-400.364-41.533-46.013-14.666,102.534-56.54,52.228-68.274-130.4-30.423-530.37,17.8-707.161-23.9s78.829-138.75,0-142.9c-95.361-5.022-430.814,105.833-362.8,128.885,74.806,25.354,642.106,120.258,675.877,160.442,65.971,156.357-421.819,29.806-483.76,38.912-113.008,16.613,175.383,91.425-192.117,136.005s311.26,194.961-292.976,144.725c-173.959-19.339-370.753-27.548-363.1-6.786,10.933,29.657,440.322,61.99,432.689,114.5-4.686,32.242-283.76,208.212,156.738,121.194s338.064,70.508,258.767,154.892c-124.1,132.057,0,190.987,0,190.987s162.483,79.91,353.64,71.166,164.729,59.244,49.209,90.588-381.042,82.986-511.287,34.792-306.466,65.527-353.742,122.473,229.932,60.293,164.636,105.314-293.263-38.313-419.1-22.629-127.8,58.634-84.253,85.37-248.091,107.494-248.091,107.494S-3485.486,4043.158-3331.753,4035.363Z" transform="translate(2223.152 -793.855)" fill="#a17496" opacity="0.8"/>
    <path id="Path_276" data-name="Path 276" d="M3277.46,2926.29c-219.362-14.25-625.511-113.528-625.511-113.528l-125.6-117.8s-442.513-5.61-556.854-135.979-133.275-146.273-320.095-180.666-67.338-177.2-671.576-172.737S386.2,1955.652,471.611,1845.187s159.207,112.606,847.85-81.462-92.543-294.561-123.391-392.748,255.005-216.18,573.137-208.741,208.435-14.288,184.473-68.963c-29.228-66.692-382.971-122.855-298.942-156.643,42.5-17.088,328.944-79.486,111.9-148.939S519.425,743.315,786.561,658.817-145.856,460,15.547,421.328c30.319-7.265,428.775-11.262,570.619-59.657,65.472-22.339-146.858-89.85-75.228-107.546,185.673-45.868,756.692,34.941,1008.41-27.958S1405.421,7.974,1517.814,2.529C1653.78-4.059,2133.449,173.9,2036.679,209.074,1930.25,247.752,1122.093,388.7,1074.356,451.143c-92.419,243.814,601.987,52.276,690.434,67.352C1926.16,546,1515.613,659.232,2040.281,733.9S1598.4,1034.859,2459.724,964.3c247.921-27.941,528.533-38.162,517.842-5.774-15.274,46.267-627.395,91.138-615.943,173.424,7.03,50.519,406.982,329.636-222.263,187.575s-481.446,105.834-367.432,238.951c178.426,208.322,2.051,298.893,2.051,298.893s-230.9,122.887-503.653,106.653-234.326,90.516-69.216,141.112,544.394,134.957,729.654,61.271,437.834,106.639,505.88,196.391-327.32,91.286-233.7,162.617,417.888-56.049,597.549-29.823,182.926,93.468,121.092,134.727,355.023,171.54,355.023,171.54S3496.822,2940.539,3277.46,2926.29Z" transform="translate(-106.814 101.732) rotate(1)" fill="#e0d9d1"/>
    <path id="Path_294" data-name="Path 294" d="M3021.158.947c-202.241,13.138-576.689,104.667-576.689,104.667l-115.794,108.6s-407.975,5.172-513.392,125.365-122.873,134.857-295.111,166.565S1458.089,669.522,901.012,665.4,355.562,895.827,434.305,997.67s146.781-103.817,781.676,75.1-85.32,271.57-113.76,362.094,235.1,199.307,528.4,192.449,192.167,13.173,170.075,63.58c-26.946,61.487-353.08,113.266-275.61,144.417,39.182,15.754,303.27,73.282,103.165,137.314S478.388,2013.54,724.674,2091.444s-859.642,183.3-710.837,218.952c27.952,6.7,395.309,10.383,526.083,55,60.362,20.6-135.4,82.837-69.356,99.152,171.181,42.288,697.632-32.214,929.7,25.776s-105.036,201.163-1.415,206.183c125.354,6.074,567.585-158,478.368-190.423-98.122-35.66-843.2-165.61-887.214-223.176-85.206-224.784,555-48.2,636.546-62.1,148.775-25.36-229.729-129.752,253.988-198.6s-407.388-277.467,386.707-212.418c228.571,25.76,487.281,35.184,477.424,5.324-14.081-42.656-578.426-84.025-567.869-159.888,6.481-46.576,375.217-303.908-204.916-172.934s-443.869-97.574-338.755-220.3c164.5-192.062,1.891-275.565,1.891-275.565s-212.88-113.3-464.343-98.329-216.037-83.451-63.814-130.1,501.9-124.424,672.7-56.489,403.662-98.316,466.4-181.062S1944.194,436.3,2030.507,370.533s385.272,51.674,550.91,27.495,168.648-86.173,111.641-124.211,327.314-158.151,327.314-158.151S3223.4-12.19,3021.158.947Z" transform="matrix(-1, 0.017, -0.017, -1, 2643.252, 7740.876)" fill="#e0d9d1" opacity="0.9"/>
  </g>
</svg>
