<svg xmlns="http://www.w3.org/2000/svg" xmlns:xlink="http://www.w3.org/1999/xlink" width="1920" height="6170" viewBox="0 0 1920 6170">
  <defs>
    <clipPath id="clip-Web_1920_3">
      <rect width="1920" height="6170"/>
    </clipPath>
  </defs>
  <g id="Web_1920_3" data-name="Web 1920 – 3" clip-path="url(#clip-Web_1920_3)">
    <rect width="1920" height="6170" fill="#fff"/>
    <path id="Path_11" data-name="Path 11" d="M-1032.12,2235.559c-178.672,13.338-189.665,122.756-393.667,122.756,0,0-289.313,66.781-381.757,208.18s-107.784,158.6-259.824,194.3-53.88,193.1-546.28,182.031-480.7,267.267-410.484,388.942,129.1-121.515,691.342,97.761-73.763,321.179-98.352,428.239,209,239.02,468.2,234.139,169.927,17.758,150.707,77.305c-23.443,72.634-311.384,130.433-242.722,168.242,34.726,19.123,268.49,90.291,92.016,164.022s-1016.065,35.768-797.912,130.908-758.685,207.879-626.947,251.825c24.747,8.255,349.458,16.7,465.313,71.078,53.477,25.1-119.168,96.755-60.7,116.84,151.556,52.061,616.408-30.469,821.878,40.891s-91.617,237.447,0,244.553c110.83,8.595,500.7-181.115,421.651-220.565-86.942-43.387-746.271-205.8-785.52-274.569-76.672-267.577,490.248-51.009,562.236-66.591,131.341-28.43-203.834-156.458,223.283-232.748s-361.753-333.642,340.5-247.671c202.179,33.093,430.9,47.141,422,11.613-12.7-50.753-511.753-106.086-502.882-195.955,5.446-55.176,329.793-356.321-182.164-207.4s-392.907-120.665-300.745-265.072c144.229-225.99,0-326.843,0-326.843s-188.842-136.75-411.007-121.787-191.451-101.384-57.191-155.025,442.855-142.018,594.229-59.54,356.181-112.14,411.127-209.594-267.232-103.177-191.343-180.226,340.837,65.569,487.089,38.727,148.538-100.343,97.921-146.1,288.337-183.96,288.337-183.96S-853.449,2222.22-1032.12,2235.559Z" transform="translate(2720.783 -2337.854)" fill="#b3bf58"/>
    <path id="Path_7" data-name="Path 7" d="M553.706,5128.1c-265.945-12.378-757.735-109.275-757.735-109.275l-151.355-118.355s-536.676-1.492-674.275-132.711-160.432-147.182-386.738-180.311-80.2-179.2-813.115-168.927-715.5-248.026-610.988-360.942,192.164,112.767,1029.032-90.723-109.793-298.058-146.392-397.41,311.094-221.812,696.894-217.283,252.929-16.479,224.321-71.739c-34.9-67.405-463.482-121.043-361.282-156.131,51.688-17.746,399.636-83.79,136.961-152.214s-1512.37-33.193-1187.659-121.484-1129.27-192.913-933.184-233.7c36.833-7.661,520.153-15.5,692.6-65.961,79.6-23.292-177.376-89.791-90.349-108.429,225.584-48.313,917.5,28.276,1223.331-37.948s-136.367-220.353,0-226.947c164.967-7.976,745.274,168.076,627.61,204.686-129.409,40.264-1110.793,190.983-1169.213,254.8-114.124,248.314,729.713,47.336,836.865,61.8,195.5,26.384-303.4,145.194,332.348,215.992s-538.454,309.623,506.824,229.841c300.935-30.71,641.374-43.747,628.136-10.777-18.91,47.1-761.723,98.449-748.519,181.849,8.106,51.2,490.884,330.668-271.144,192.471s-584.825,111.978-447.646,245.99c214.678,209.721,0,303.313,0,303.313s-281.083,126.9-611.768,113.02-284.966,94.085-85.126,143.865,659.171,131.793,884.484,55.253,530.161,104.066,611.945,194.505-397.764,95.75-284.806,167.251,507.322-60.849,725.012-35.939,221.092,93.12,145.751,135.579,429.177,170.717,429.177,170.717S819.65,5140.483,553.706,5128.1Z" transform="translate(2755.097 1191.643)" fill="#b3bf58"/>
    <path id="Path_5" data-name="Path 5" d="M1462.051,5619.062C1135.008,5604.625,530.234,5491.6,530.234,5491.6L344.106,5353.558s-659.972-1.74-829.183-154.792-197.289-171.67-475.587-210.311-98.623-209.013-999.92-197.034-879.879-289.293-751.357-421,236.312,131.53,1265.443-105.818-135.017-347.65-180.024-463.533,382.565-258.718,857-253.436,311.037-19.221,275.856-83.676c-42.912-78.62-569.963-141.183-444.283-182.109,63.564-20.7,491.449-97.731,168.427-177.54s-1859.823-38.716-1460.512-141.7-1388.709-225.011-1147.574-272.579c45.3-8.936,639.654-18.08,851.716-76.936,97.884-27.167-218.126-104.73-111.1-126.47,277.41-56.351,1128.284,32.98,1504.378-44.262s-167.7-257.016,0-264.707c202.867-9.3,916.495,196.041,771.8,238.742-159.139,46.963-1365.988,222.76-1437.828,297.2-140.343,289.629,897.357,55.212,1029.126,72.079,240.408,30.773-373.1,169.352,408.7,251.93s-662.159,361.139,623.262,268.083c370.072-35.82,788.724-51.026,772.445-12.57-23.255,54.936-936.721,114.829-920.484,212.105,9.969,59.722,603.66,385.687-333.436,224.5s-719.183,130.609-550.489,286.918c264,244.616,0,353.78,0,353.78s-345.659,148.02-752.315,131.824-350.435,109.74-104.683,167.8,810.609,153.721,1087.687,64.447,651.96,121.381,752.534,226.868-489.147,111.681-350.238,195.08,623.874-70.974,891.577-41.919,271.886,108.613,179.236,158.136,527.777,199.122,527.777,199.122S1789.094,5633.5,1462.051,5619.062Z" transform="translate(2933.149 -1236.412) rotate(3)" fill="#e0d9d1"/>
  </g>
</svg>
