<svg xmlns="http://www.w3.org/2000/svg" xmlns:xlink="http://www.w3.org/1999/xlink" width="1920" height="4046" viewBox="0 0 1920 4046">
  <defs>
    <clipPath id="clip-Web_1920_1">
      <rect width="1920" height="4046"/>
    </clipPath>
  </defs>
  <g id="Web_1920_1" data-name="Web 1920 – 1" clip-path="url(#clip-Web_1920_1)">
    <rect width="1920" height="4046" fill="#fff"/>
    <text id="Vi_har_både_frivillige_der_er_16_år_gamle_og_frivillige_der_er_i_slutningen_af_tyverne._Enkelte_er_frivillige_til_alle_arrangementer_og_andre_ser_vi_til_arrangementer_en_gang_eller_to_om_måneden._" data-name="Vi har både frivillige, der er 16 år gamle, og frivillige, der er i slutningen af tyverne. Enkelte er frivillige til alle arrangementer, og andre ser vi til arrangementer en gang eller to om måneden.
" transform="translate(1155.982 1159)" fill="#fff" font-size="50" font-family="LaoMN, Lao MN"><tspan x="0" y="45">Vi har b</tspan><tspan y="45" font-family="Times-Roman, Times">å</tspan><tspan y="45">de frivillige, der er </tspan><tspan x="0" y="114">16 </tspan><tspan y="114" font-family="Times-Roman, Times">å</tspan><tspan y="114">r gamle, og frivillige, der </tspan><tspan x="0" y="183">er i slutningen af tyverne. </tspan><tspan x="0" y="252">Enkelte er frivillige til alle </tspan><tspan x="0" y="321">arrangementer, og andre </tspan><tspan x="0" y="390">ser vi til arrangementer en </tspan><tspan x="0" y="459">gang eller to om m</tspan><tspan y="459" font-family="Times-Roman, Times">å</tspan><tspan y="459">neden.</tspan><tspan x="0" y="528"></tspan></text>
    <text id="Vi_har_både_frivillige_der_er_16_år_gamle_og_frivillige_der_er_i_slutningen_af_tyverne._Enkelte_er_frivillige_til_alle_arrangementer_og_andre_ser_vi_til_arrangementer_en_gang_eller_to_om_måneden._2" data-name="Vi har både frivillige, der er 16 år gamle, og frivillige, der er i slutningen af tyverne. Enkelte er frivillige til alle arrangementer, og andre ser vi til arrangementer en gang eller to om måneden.
" transform="translate(1155.982 1159)" fill="#fff" font-size="50" font-family="LaoMN, Lao MN"><tspan x="0" y="45">Vi har b</tspan><tspan y="45" font-family="Times-Roman, Times">å</tspan><tspan y="45">de frivillige, der er </tspan><tspan x="0" y="114">16 </tspan><tspan y="114" font-family="Times-Roman, Times">å</tspan><tspan y="114">r gamle, og frivillige, der </tspan><tspan x="0" y="183">er i slutningen af tyverne. </tspan><tspan x="0" y="252">Enkelte er frivillige til alle </tspan><tspan x="0" y="321">arrangementer, og andre </tspan><tspan x="0" y="390">ser vi til arrangementer en </tspan><tspan x="0" y="459">gang eller to om m</tspan><tspan y="459" font-family="Times-Roman, Times">å</tspan><tspan y="459">neden.</tspan><tspan x="0" y="528"></tspan></text>
    <path id="Path_13" data-name="Path 13" d="M553.706,6221.3c-265.945-16.964-757.735-149.76-757.735-149.76l-151.355-162.2s-536.676-2.044-674.275-181.877-160.432-201.71-386.738-247.112-80.2-245.586-813.115-231.511-715.5-339.915-610.988-494.664,192.164,154.545,1029.032-124.334-109.793-408.482-146.392-544.643,311.094-303.99,696.894-297.783,252.929-22.584,224.321-98.317c-34.9-92.378-463.482-165.888-361.282-213.975,51.688-24.32,399.636-114.832,136.961-208.606s-1512.37-45.49-1187.659-166.491-1129.27-264.384-933.184-320.275c36.833-10.5,520.153-21.243,692.6-90.4,79.6-31.921-177.376-123.056-90.349-148.6,225.584-66.211,917.5,38.751,1223.331-52.006s-136.367-301.989,0-311.026c164.967-10.932,745.274,230.345,627.61,280.518-129.409,55.181-1110.793,261.739-1169.213,349.2-114.124,340.31,729.713,64.874,836.865,84.692,195.5,36.158-303.4,198.985,332.348,296.013s-538.454,424.332,506.824,314.992c300.935-42.087,641.374-59.955,628.136-14.77-18.91,64.549-761.723,134.922-748.519,249.22,8.106,70.173,490.884,453.175-271.144,263.778s-584.825,153.463-447.646,337.124c214.678,287.419,0,415.685,0,415.685s-281.083,173.92-611.768,154.891-284.966,128.942-85.126,197.164,659.171,180.62,884.484,75.724,530.161,142.621,611.945,266.566-397.764,131.223-284.806,229.215,507.322-83.392,725.012-49.254S199.869,5756.1,124.528,5814.286,553.706,6048.25,553.706,6048.25,819.65,6238.265,553.706,6221.3Z" transform="translate(2324.088 918.643)" fill="#33396b"/>
    <path id="Path_14" data-name="Path 14" d="M553.706,5128.1c-265.945-12.378-757.735-109.275-757.735-109.275l-151.355-118.355s-536.676-1.492-674.275-132.711-300.262-3.156-526.568-36.285,77.795-269.095-655.122-258.824-733.662-302.154-629.151-415.07,192.164,112.767,1029.032-90.723-109.793-298.058-146.392-397.41,311.094-221.812,696.894-217.283,252.929-16.479,224.321-71.739c-34.9-67.405-463.482-121.043-361.282-156.131,51.688-17.746,399.636-83.79,136.961-152.214s-1512.37-33.193-1187.659-121.484-1129.27-192.913-933.184-233.7c36.833-7.661,520.153-15.5,692.6-65.961,79.6-23.292-177.376-89.791-90.349-108.429,225.584-48.313,917.5,28.276,1223.331-37.948s-159.688-497.762-23.319-504.356c164.967-7.976,768.594,445.486,650.929,482.1-129.409,40.264-1110.793,190.983-1169.213,254.8-114.124,248.314,729.713,47.336,836.865,61.8,195.5,26.384-303.4,145.194,332.348,215.992s-538.454,309.623,506.824,229.841c300.935-30.71,641.374-43.747,628.136-10.777-18.91,47.1-761.723,98.449-748.519,181.849,8.106,51.2,490.884,330.668-271.144,192.471s-584.825,111.978-447.646,245.99c214.678,209.721,0,303.313,0,303.313s-281.083,126.9-611.768,113.02-284.966,94.085-85.126,143.865c13.789,3.435,28.813,7.023,44.86,10.69,217.253,49.653,629.858,115.822,839.624,44.563,225.314-76.54,530.161,104.066,611.945,194.505s-397.764,95.75-284.806,167.251,507.322-60.849,725.012-35.939,221.092,93.12,145.751,135.579,429.177,170.717,429.177,170.717S819.65,5140.483,553.706,5128.1Z" transform="translate(3026.07 -1667.259)" fill="#33396b"/>
    <path id="Path_15" data-name="Path 15" d="M-3283.236,5908.493c-327.042-14.437-528.456-295.544-528.456-295.544L-3997.82,5474.9s-659.972-1.74-829.183-154.792-197.289-171.67-475.587-210.311,2611.042-205.471,1709.745-193.492,752.382-414.178,880.9-545.882,236.312,131.53,1265.443-105.818-135.017-347.65-180.024-463.533,382.565-258.718,857-253.436,311.037-19.221,275.856-83.676c-42.912-78.62-569.963-141.183-444.283-182.109,63.564-20.7,491.449-97.731,168.427-177.54s-1859.823-38.716-1460.512-141.7-1388.709-225.011-1147.574-272.579c45.3-8.936,639.654-18.08,851.716-76.936,97.884-27.167-218.126-104.73-111.1-126.47,277.41-56.351,1128.117-125.511,1504.212-202.753s492.085-372.532,659.781-380.223c202.866-9.3-203.827,608.937-348.524,651.639-159.139,46.963-905.28,83.871-977.12,158.309-140.343,289.629,897.357,55.212,1029.126,72.079,240.408,30.773-373.1,169.352,408.7,251.93s-662.159,361.139,623.262,268.083c370.072-35.82,788.724-51.026,772.445-12.57-23.255,54.936-936.721,114.829-920.484,212.105,9.969,59.722,603.66,385.687-333.436,224.5s-719.183,130.609-550.489,286.918c264,244.616,0,353.78,0,353.78s-345.659,148.02-752.315,131.824S-4121.951,4695.2-3876.2,4753.263s-195.313,131.326,81.764,42.052-434.365,181.906-333.793,287.393-489.146,111.681-350.237,195.08,623.874-70.974,891.577-41.919S-3315,5344.481-3407.652,5394s124.416,367.209,124.416,367.209S-2956.193,5922.931-3283.236,5908.493Z" transform="translate(2228.787 -1909.492) rotate(3)" fill="#e0d9d1"/>
    <path id="Path_16" data-name="Path 16" d="M-3283.236,5908.493c-327.042-14.437-528.456-295.544-528.456-295.544L-3997.82,5474.9s-659.972-1.74-829.183-154.792-197.289-171.67-475.587-210.311,2611.042-205.471,1709.745-193.492,752.382-414.178,880.9-545.882,236.312,131.53,1265.443-105.818-135.017-347.65-180.024-463.533,382.565-258.718,857-253.436,311.037-19.221,275.856-83.676c-42.912-78.62-569.963-141.183-444.283-182.109,63.564-20.7,491.449-97.731,168.427-177.54s-1859.823-38.716-1460.512-141.7-1388.709-225.011-1147.574-272.579c45.3-8.936,639.654-18.08,851.716-76.936,97.884-27.167-218.126-104.73-111.1-126.47,277.41-56.351,1128.284,32.98,1504.378-44.262s-40.325-436.953,127.371-444.643c202.867-9.3,789.124,375.978,644.427,418.679-159.139,46.963-1365.988,222.76-1437.828,297.2-140.343,289.629,897.357,55.212,1029.126,72.079,240.408,30.773-373.1,169.352,408.7,251.93s-662.159,361.139,623.262,268.083c370.072-35.82,788.724-51.026,772.445-12.57-23.255,54.936-936.721,114.829-920.484,212.105,9.969,59.722,603.66,385.687-333.436,224.5s-719.183,130.609-550.489,286.918c264,244.616,0,353.78,0,353.78s-345.659,148.02-752.315,131.824S-4121.951,4695.2-3876.2,4753.263s-195.313,131.326,81.764,42.052-434.365,181.906-333.793,287.393-489.146,111.681-350.237,195.08,623.874-70.974,891.577-41.919S-3315,5344.481-3407.652,5394s124.416,367.209,124.416,367.209S-2956.193,5922.931-3283.236,5908.493Z" transform="translate(2393.795 306.686) rotate(3)" fill="#e0d9d1"/>
    <g id="Group_147" data-name="Group 147" transform="translate(1821.653 2804) rotate(90)">
      <g id="Group_86" data-name="Group 86" transform="translate(577.5 341.341)">
        <rect id="Rectangle_33" data-name="Rectangle 33" width="191" height="169" transform="translate(0.5 171.313)" fill="#fff"/>
        <g id="Group_85" data-name="Group 85" transform="translate(0 0)">
          <rect id="Rectangle_18" data-name="Rectangle 18" width="192" height="171" transform="translate(385.5 0.313)"/>
          <g id="Group_84" data-name="Group 84">
            <rect id="Rectangle_15" data-name="Rectangle 15" width="192" height="169" transform="translate(385.5 171.313)" fill="#fff"/>
            <rect id="Rectangle_34" data-name="Rectangle 34" width="191" height="171" transform="translate(0.5 0.313)"/>
            <rect id="Rectangle_19" data-name="Rectangle 19" width="191" height="171" transform="translate(192.5 0.313)" fill="#fff"/>
            <rect id="Rectangle_21" data-name="Rectangle 21" width="191" height="169" transform="translate(192.5 171.313)"/>
          </g>
        </g>
      </g>
      <g id="Group_88" data-name="Group 88" transform="translate(577.5 -0.347)">
        <rect id="Rectangle_33-2" data-name="Rectangle 33" width="191" height="171" transform="translate(0.5 171)" fill="#fff"/>
        <g id="Group_85-2" data-name="Group 85" transform="translate(0 0)">
          <rect id="Rectangle_18-2" data-name="Rectangle 18" width="192" height="171" transform="translate(385.5 0)"/>
          <g id="Group_84-2" data-name="Group 84">
            <rect id="Rectangle_15-2" data-name="Rectangle 15" width="192" height="171" transform="translate(385.5 171)" fill="#fff"/>
            <rect id="Rectangle_34-2" data-name="Rectangle 34" width="191" height="171" transform="translate(0.5 0)"/>
            <rect id="Rectangle_19-2" data-name="Rectangle 19" width="191" height="171" transform="translate(192.5 0)" fill="#fff"/>
            <rect id="Rectangle_21-2" data-name="Rectangle 21" width="191" height="171" transform="translate(192.5 171)"/>
          </g>
        </g>
      </g>
      <g id="Group_89" data-name="Group 89" transform="translate(0 -0.347)">
        <rect id="Rectangle_33-3" data-name="Rectangle 33" width="191" height="171" transform="translate(0 0)" fill="#fff"/>
        <g id="Group_85-3" data-name="Group 85" transform="translate(0 0)">
          <rect id="Rectangle_18-3" data-name="Rectangle 18" width="193" height="171" transform="translate(385 171)"/>
          <g id="Group_84-3" data-name="Group 84">
            <rect id="Rectangle_15-3" data-name="Rectangle 15" width="193" height="171" transform="translate(385 0)" fill="#fff"/>
            <rect id="Rectangle_34-3" data-name="Rectangle 34" width="191" height="171" transform="translate(0 171)"/>
            <rect id="Rectangle_19-3" data-name="Rectangle 19" width="192" height="171" transform="translate(193 171)" fill="#fff"/>
            <rect id="Rectangle_21-3" data-name="Rectangle 21" width="192" height="171" transform="translate(193 0)"/>
          </g>
        </g>
      </g>
      <g id="Group_87" data-name="Group 87" transform="translate(0 341.341)">
        <rect id="Rectangle_33-4" data-name="Rectangle 33" width="191" height="171" transform="translate(0 0.313)" fill="#fff"/>
        <g id="Group_85-4" data-name="Group 85" transform="translate(0 0)">
          <rect id="Rectangle_18-4" data-name="Rectangle 18" width="193" height="169" transform="translate(385 171.313)"/>
          <g id="Group_84-4" data-name="Group 84" transform="translate(0 0)">
            <rect id="Rectangle_15-4" data-name="Rectangle 15" width="193" height="171" transform="translate(385 0.313)" fill="#fff"/>
            <rect id="Rectangle_34-4" data-name="Rectangle 34" width="191" height="169" transform="translate(0 171.313)"/>
            <rect id="Rectangle_19-4" data-name="Rectangle 19" width="192" height="169" transform="translate(193 171.313)" fill="#fff"/>
            <rect id="Rectangle_21-4" data-name="Rectangle 21" width="192" height="171" transform="translate(193 0.313)"/>
          </g>
        </g>
      </g>
    </g>
    <g id="Group_148" data-name="Group 148" transform="translate(514.653 857) rotate(90)">
      <g id="Group_86-2" data-name="Group 86" transform="translate(577.5 341.341)">
        <rect id="Rectangle_33-5" data-name="Rectangle 33" width="191" height="169" transform="translate(0.5 171.313)" fill="#fff"/>
        <g id="Group_85-5" data-name="Group 85" transform="translate(0 0)">
          <rect id="Rectangle_18-5" data-name="Rectangle 18" width="192" height="171" transform="translate(385.5 0.313)"/>
          <g id="Group_84-5" data-name="Group 84">
            <rect id="Rectangle_15-5" data-name="Rectangle 15" width="192" height="169" transform="translate(385.5 171.313)" fill="#fff"/>
            <rect id="Rectangle_34-5" data-name="Rectangle 34" width="191" height="171" transform="translate(0.5 0.313)"/>
            <rect id="Rectangle_19-5" data-name="Rectangle 19" width="191" height="171" transform="translate(192.5 0.313)" fill="#fff"/>
            <rect id="Rectangle_21-5" data-name="Rectangle 21" width="191" height="169" transform="translate(192.5 171.313)"/>
          </g>
        </g>
      </g>
      <g id="Group_88-2" data-name="Group 88" transform="translate(577.5 -0.347)">
        <rect id="Rectangle_33-6" data-name="Rectangle 33" width="191" height="171" transform="translate(0.5 171)" fill="#fff"/>
        <g id="Group_85-6" data-name="Group 85" transform="translate(0 0)">
          <rect id="Rectangle_18-6" data-name="Rectangle 18" width="192" height="171" transform="translate(385.5 0)"/>
          <g id="Group_84-6" data-name="Group 84">
            <rect id="Rectangle_15-6" data-name="Rectangle 15" width="192" height="171" transform="translate(385.5 171)" fill="#fff"/>
            <rect id="Rectangle_34-6" data-name="Rectangle 34" width="191" height="171" transform="translate(0.5 0)"/>
            <rect id="Rectangle_19-6" data-name="Rectangle 19" width="191" height="171" transform="translate(192.5 0)" fill="#fff"/>
            <rect id="Rectangle_21-6" data-name="Rectangle 21" width="191" height="171" transform="translate(192.5 171)"/>
          </g>
        </g>
      </g>
      <g id="Group_89-2" data-name="Group 89" transform="translate(0 -0.347)">
        <rect id="Rectangle_33-7" data-name="Rectangle 33" width="191" height="171" transform="translate(0 0)" fill="#fff"/>
        <g id="Group_85-7" data-name="Group 85" transform="translate(0 0)">
          <rect id="Rectangle_18-7" data-name="Rectangle 18" width="193" height="171" transform="translate(385 171)"/>
          <g id="Group_84-7" data-name="Group 84">
            <rect id="Rectangle_15-7" data-name="Rectangle 15" width="193" height="171" transform="translate(385 0)" fill="#fff"/>
            <rect id="Rectangle_34-7" data-name="Rectangle 34" width="191" height="171" transform="translate(0 171)"/>
            <rect id="Rectangle_19-7" data-name="Rectangle 19" width="192" height="171" transform="translate(193 171)" fill="#fff"/>
            <rect id="Rectangle_21-7" data-name="Rectangle 21" width="192" height="171" transform="translate(193 0)"/>
          </g>
        </g>
      </g>
      <g id="Group_87-2" data-name="Group 87" transform="translate(0 341.341)">
        <rect id="Rectangle_33-8" data-name="Rectangle 33" width="191" height="171" transform="translate(0 0.313)" fill="#fff"/>
        <g id="Group_85-8" data-name="Group 85" transform="translate(0 0)">
          <rect id="Rectangle_18-8" data-name="Rectangle 18" width="193" height="169" transform="translate(385 171.313)"/>
          <g id="Group_84-8" data-name="Group 84" transform="translate(0 0)">
            <rect id="Rectangle_15-8" data-name="Rectangle 15" width="193" height="171" transform="translate(385 0.313)" fill="#fff"/>
            <rect id="Rectangle_34-8" data-name="Rectangle 34" width="191" height="169" transform="translate(0 171.313)"/>
            <rect id="Rectangle_19-8" data-name="Rectangle 19" width="192" height="169" transform="translate(193 171.313)" fill="#fff"/>
            <rect id="Rectangle_21-8" data-name="Rectangle 21" width="192" height="171" transform="translate(193 0.313)"/>
          </g>
        </g>
      </g>
    </g>
  </g>
</svg>
